<?xml version="1.0" encoding="UTF-8" standalone="no"?>
<!-- Created with Inkscape (http://www.inkscape.org/) -->

<svg
   width="107.54026mm"
   height="15.78649mm"
   viewBox="0 0 107.54026 15.78649"
   version="1.1"
   id="svg1"
   xml:space="preserve"
   inkscape:version="1.3.2 (091e20e, 2023-11-25, custom)"
   sodipodi:docname="logo_sense.svg"
   xmlns:inkscape="http://www.inkscape.org/namespaces/inkscape"
   xmlns:sodipodi="http://sodipodi.sourceforge.net/DTD/sodipodi-0.dtd"
   xmlns="http://www.w3.org/2000/svg"
   xmlns:svg="http://www.w3.org/2000/svg"><sodipodi:namedview
     id="namedview1"
     pagecolor="#ffffff"
     bordercolor="#000000"
     borderopacity="0.25"
     inkscape:showpageshadow="2"
     inkscape:pageopacity="0.0"
     inkscape:pagecheckerboard="0"
     inkscape:deskcolor="#d1d1d1"
     inkscape:document-units="mm"
     inkscape:zoom="2.1398288"
     inkscape:cx="111.22385"
     inkscape:cy="118.00009"
     inkscape:window-width="2560"
     inkscape:window-height="1377"
     inkscape:window-x="-8"
     inkscape:window-y="-8"
     inkscape:window-maximized="1"
     inkscape:current-layer="layer1" /><defs
     id="defs1"><marker
       id="DistanceX"
       orient="auto"
       refX="0"
       refY="0"
       style="overflow:visible"><path
         d="M 3,-3 -3,3 M 0,-5 V 5"
         style="stroke:#000000;stroke-width:0.5"
         id="path1" /></marker><pattern
       id="Hatch"
       patternUnits="userSpaceOnUse"
       width="8"
       height="8"
       x="0"
       y="0"><path
         d="M8 4 l-4,4"
         stroke="#000000"
         stroke-width="0.25"
         linecap="square"
         id="path2" /><path
         d="M6 2 l-4,4"
         stroke="#000000"
         stroke-width="0.25"
         linecap="square"
         id="path3" /><path
         d="M4 0 l-4,4"
         stroke="#000000"
         stroke-width="0.25"
         linecap="square"
         id="path4" /></pattern><symbol
       id="*Model_Space" /><symbol
       id="*Paper_Space" /><symbol
       id="*Paper_Space0" /><symbol
       id="_ArchTick"><path
         d="m -1.889764,1124.4094 3.779528,-3.7795"
         style="fill:none;stroke:#000000;stroke-linecap:round"
         id="path5" /></symbol></defs><g
     inkscape:label="Layer 1"
     inkscape:groupmode="layer"
     id="layer1"
     transform="translate(-28.455767,-223.69755)"><path
       id="path86"
       style="opacity:1;vector-effect:non-scaling-stroke;fill:#3f7652;fill-opacity:1;stroke:none;stroke-width:0.264583;stroke-dasharray:none;-inkscape-stroke:hairline"
       d="m 132.85247,232.72353 v -2.26547 c -4e-5,-0.24645 -0.19954,-0.44594 -0.44558,-0.44637 h -14.81558 c -0.24612,4.3e-4 -0.44561,0.19992 -0.44558,0.44637 v 8.58056 c -3e-5,0.24585 0.19946,0.44534 0.44558,0.44504 h 17.95914 c 0.24608,3e-4 0.44558,-0.19919 0.44558,-0.44504 v -2.26679 c 1e-5,-0.24565 -0.19949,-0.44514 -0.44558,-0.44505 l -15.21486,10e-5 v -3.15648 l 12.0713,-5.1e-4 c 0.24604,-5e-4 0.44554,-0.19999 0.44558,-0.44636 z m -15.26116,-5.86872 h 17.95914 c 0.24609,1e-5 0.44559,-0.19948 0.44558,-0.44505 v -2.26679 c 0,-0.24593 -0.1995,-0.44542 -0.44558,-0.44504 h -17.95914 c -0.24612,-3.8e-4 -0.44561,0.19911 -0.44558,0.44504 v 2.26679 c -4e-5,0.24556 0.19946,0.44506 0.44558,0.44505 z"
       inkscape:label="E2" /><path
       d="M 113.72763,226.85481 H 99.816704 c -2.104868,1e-5 -2.104868,3.15731 0,3.15688 h 9.942386 c 2.61173,0.006 4.72615,2.12457 4.72615,4.73635 0,2.61178 -2.11442,4.73055 -4.72615,4.73562 H 95.830967 c -0.24609,3e-4 -0.445587,-0.19919 -0.445589,-0.44504 v -2.26679 c -4e-6,-0.24564 0.199495,-0.44514 0.445589,-0.44504 h 13.928123 c 2.10482,-10e-5 2.10482,-3.1574 0,-3.1569 h -9.942386 c -6.301596,-0.0135 -6.301596,-9.45939 0,-9.47196 h 13.910926 c 0.2461,-3.8e-4 0.44559,0.19911 0.44558,0.44504 l -1e-5,2.26679 c 3e-5,0.24556 -0.19947,0.44506 -0.44557,0.44505 z"
       style="opacity:1;vector-effect:non-scaling-stroke;fill:#3f7652;fill-opacity:1;stroke:none;stroke-width:0.264583;stroke-dasharray:none;-inkscape-stroke:hairline"
       id="path72"
       sodipodi:nodetypes="ccccsccccccccccccc"
       inkscape:label="S2" /><path
       d="m 88.915472,236.59146 c -4.155648,0 -6.900574,-12.89395 -13.801167,-12.89315 l -2.71343,-3.8e-4 c -0.246085,-3.8e-4 -0.445582,0.19911 -0.44559,0.44504 v 14.89565 c 8e-6,0.24585 0.199505,0.44534 0.44559,0.44504 h 2.267845 c 0.24609,3e-4 0.445587,-0.19919 0.445591,-0.44504 l -6e-6,-12.45106 c 4.464765,0 7.840427,12.89315 13.801168,12.89448 l 2.713439,0.002 c 0.246093,3e-4 0.44559,-0.19919 0.445604,-0.44504 v -14.89565 c -1.4e-5,-0.24593 -0.199511,-0.44542 -0.445604,-0.44504 h -2.267831 c -0.246095,-3.8e-4 -0.445592,0.19911 -0.445601,0.4452"
       style="opacity:1;vector-effect:non-scaling-stroke;fill:#3f7652;fill-opacity:1;stroke:none;stroke-width:0.264583;stroke-dasharray:none;-inkscape-stroke:hairline"
       id="path42"
       sodipodi:nodetypes="cccccccccccccccc"
       inkscape:label="N" /><path
       id="path30"
       style="opacity:1;vector-effect:non-scaling-stroke;fill:#3f7652;fill-opacity:1;stroke:none;stroke-width:0.264583;stroke-dasharray:none;-inkscape-stroke:hairline"
       d="m 66.176411,232.72353 v -2.26547 c -1.5e-5,-0.24645 -0.199512,-0.44594 -0.445603,-0.44637 H 50.915262 c -0.246102,4.3e-4 -0.445599,0.19992 -0.445576,0.44637 v 8.58056 c -2.3e-5,0.24585 0.199474,0.44534 0.445576,0.44504 h 17.959157 c 0.246083,3e-4 0.44558,-0.19919 0.44559,-0.44504 v -2.26679 c -4e-6,-0.24564 -0.199503,-0.44514 -0.44559,-0.44505 l -15.214885,10e-5 v -3.15648 l 12.071274,-5.1e-4 c 0.246091,-5e-4 0.445588,-0.19999 0.445603,-0.44636 z m -15.261149,-5.86872 h 17.959157 c 0.246087,1e-5 0.445586,-0.19949 0.44559,-0.44505 v -2.26679 c -1e-5,-0.24593 -0.199507,-0.44542 -0.44559,-0.44504 H 50.915262 c -0.246102,-3.8e-4 -0.445599,0.19911 -0.445576,0.44504 v 2.26679 c -2.9e-5,0.24556 0.19947,0.44506 0.445576,0.44505 z"
       inkscape:label="E1" /><path
       id="path54"
       style="opacity:1;vector-effect:non-scaling-stroke;fill:#3f7652;fill-opacity:1;stroke:none;stroke-width:0.264583;stroke-dasharray:none;-inkscape-stroke:hairline"
       d="m 47.538451,224.14297 c 4.2e-5,-0.24593 -0.199455,-0.44542 -0.445577,-0.44504 l -13.910904,-3.8e-4 c -6.301594,0.0129 -6.301594,9.45889 -6.3e-5,9.47235 h 9.942427 c 2.104845,-5.1e-4 2.104845,3.15679 0,3.15689 H 29.196197 c -0.246057,-10e-5 -0.445556,0.1994 -0.445577,0.44504 v 2.26679 c 2.7e-5,0.24585 0.199524,0.44534 0.445577,0.44504 h 13.928137 c 2.611757,-0.005 4.726175,-2.12384 4.726175,-4.73562 0,-2.61178 -2.114418,-4.73055 -4.726175,-4.73634 h -9.942427 c -2.104803,4.2e-4 -2.104803,-3.15688 0,-3.1569 l 13.910967,10e-6 c 0.246126,1e-5 0.445625,-0.19949 0.445577,-0.44505 z"
       sodipodi:nodetypes="cccccccccccscccccc"
       inkscape:label="S1" /></g></svg>
