<?xml version="1.0" encoding="UTF-8" standalone="no"?>
<!-- Created with Inkscape (http://www.inkscape.org/) -->

<svg
   width="70mm"
   height="25mm"
   viewBox="0 0 70 25"
   version="1.1"
   id="svg1"
   xml:space="preserve"
   xmlns:inkscape="http://www.inkscape.org/namespaces/inkscape"
   xmlns:sodipodi="http://sodipodi.sourceforge.net/DTD/sodipodi-0.dtd"
   xmlns="http://www.w3.org/2000/svg"
   xmlns:svg="http://www.w3.org/2000/svg"><sodipodi:namedview
     id="namedview1"
     pagecolor="#505050"
     bordercolor="#ffffff"
     borderopacity="1"
     inkscape:showpageshadow="0"
     inkscape:pageopacity="0"
     inkscape:pagecheckerboard="1"
     inkscape:deskcolor="#505050"
     inkscape:document-units="mm" /><defs
     id="defs1"><rect
       x="63.808678"
       y="110.21499"
       width="661.28992"
       height="241.69954"
       id="rect26" /></defs><g
     inkscape:label="Layer 1"
     inkscape:groupmode="layer"
     id="layer1"
     transform="translate(-101.75004,-32.377288)"><g
       id="g26"
       transform="translate(0.88763619,1.9116682)"><text
         xml:space="preserve"
         transform="matrix(0.11779132,0,0,0.11779132,93.562535,34.72271)"
         id="text26"
         style="font-size:50px;line-height:1;font-family:Montserrat;-inkscape-font-specification:'Montserrat, @wght=400';font-variation-settings:'wght' 400;word-spacing:0px;white-space:pre;shape-inside:url(#rect26);fill:#ffffff;fill-opacity:1;stroke:none;stroke-width:3.77953;paint-order:markers fill stroke"><tspan
           x="63.808594"
           y="149.91952"
           id="tspan1">Ing. Jakub Rubint, PhD.</tspan></text><path
         style="fill:#ff6600;fill-opacity:1;stroke-width:0.0351718"
         d="m 113.38283,47.804107 c 0.0833,-0.114258 0.28212,-0.367341 0.44171,-0.562407 0.1596,-0.195064 0.29017,-0.369326 0.29017,-0.387246 0,-0.01792 0.0119,-0.03786 0.0264,-0.04431 0.0346,-0.01539 0.54726,-0.691921 0.60241,-0.795024 0.0475,-0.0887 0.0269,-0.148753 -0.051,-0.148753 -0.0281,0 -0.0786,-0.01394 -0.11224,-0.03098 -0.0336,-0.01704 -0.14021,-0.06712 -0.23693,-0.111286 -0.62011,-0.283168 -1.06926,-0.753438 -1.24382,-1.302274 -0.0512,-0.161137 -0.0515,-0.528277 -4e-4,-0.655318 0.0873,-0.217101 0.12066,-0.279593 0.21609,-0.404576 0.10668,-0.139714 0.54459,-0.449997 0.6351,-0.449997 0.0301,0 0.0638,-0.01461 0.0748,-0.03246 0.0111,-0.01785 0.0708,-0.04361 0.13281,-0.05723 0.062,-0.01362 0.13702,-0.0371 0.16667,-0.05217 0.0297,-0.01507 0.18053,-0.05408 0.33528,-0.08669 0.15476,-0.0326 0.33861,-0.07365 0.40856,-0.09122 0.0699,-0.01757 0.18866,-0.03203 0.26379,-0.03214 0.0751,-1.05e-4 0.19201,-0.01542 0.25971,-0.03404 0.12405,-0.03411 0.56462,-0.08551 1.21343,-0.141577 0.19344,-0.01672 0.40029,-0.04786 0.45967,-0.0692 0.0717,-0.02578 0.22885,-0.184975 0.46813,-0.474247 0.46243,-0.559055 0.95702,-1.039326 1.07032,-1.039326 0.0983,0 0.20011,0.100032 0.20011,0.196683 0,0.112726 -0.24133,0.438371 -0.35397,0.477637 -0.11399,0.03974 -0.63084,0.612445 -0.63084,0.699026 0,0.04155 0.0315,0.05198 0.1319,0.04371 0.23631,-0.01947 0.97345,-0.138482 1.46842,-0.237078 0.15476,-0.03082 0.36843,-0.07264 0.47482,-0.09293 0.1064,-0.02029 0.2805,-0.05889 0.38689,-0.08579 0.10639,-0.0269 0.2805,-0.06737 0.38689,-0.08993 0.1064,-0.02256 0.25312,-0.06274 0.32605,-0.08928 0.0729,-0.02654 0.16416,-0.04826 0.20272,-0.04826 0.0386,0 0.0976,-0.01434 0.13118,-0.03187 0.0336,-0.01753 0.16395,-0.05936 0.28969,-0.09295 0.37694,-0.100702 1.38575,-0.442415 1.6179,-0.548033 0.0484,-0.022 0.11959,-0.05273 0.15828,-0.06829 0.32511,-0.13072 0.94506,-0.448454 1.24859,-0.63992 0.86544,-0.545902 1.30104,-1.267269 1.05568,-1.748205 -0.21869,-0.428678 -0.74031,-0.777389 -1.58325,-1.058436 -0.12574,-0.04193 -0.29193,-0.08922 -0.3693,-0.105106 -0.0774,-0.01589 -0.26731,-0.0553 -0.42207,-0.08759 -0.83287,-0.173767 -1.89395,-0.238419 -3.482,-0.212158 -0.7351,0.01215 -1.52646,0.03665 -1.75859,0.05443 -0.95866,0.07344 -1.27069,0.101222 -1.35412,0.120577 -0.0484,0.01122 -0.2462,0.03793 -0.43965,0.05935 -0.50285,0.05568 -0.76306,0.09097 -1.14308,0.155016 -0.18378,0.03097 -0.42119,0.0708 -0.52758,0.08851 -0.1903,0.03167 -0.42868,0.07667 -1.01998,0.19253 -0.56417,0.110545 -0.65576,0.13026 -1.14309,0.246054 -0.13541,0.03218 -0.3016,0.07124 -0.3693,0.0868 -0.28931,0.06651 -0.67758,0.164324 -0.91447,0.230368 -0.0871,0.02427 -0.22949,0.06353 -0.31654,0.08725 -0.0871,0.02372 -0.22159,0.06318 -0.29897,0.08769 -0.0774,0.02451 -0.2119,0.06468 -0.29896,0.08927 -0.18801,0.05311 -0.96433,0.308771 -1.33653,0.440159 -0.24137,0.08521 -0.39662,0.145536 -0.7386,0.287026 -0.0677,0.02801 -0.15476,0.06382 -0.19345,0.07958 -0.20762,0.08456 -1.18444,0.575371 -1.29664,0.651513 -0.072,0.04887 -0.1381,0.08886 -0.14686,0.08886 -0.009,0 -0.20391,0.133736 -0.43369,0.297194 -0.46217,0.328769 -0.71945,0.591626 -0.909,0.92874 -0.10821,0.192443 -0.12591,0.256045 -0.12731,0.457234 -0.001,0.192784 0.0142,0.258323 0.0888,0.374382 0.15996,0.248822 0.36136,0.378541 0.82582,0.531871 0.3078,0.101615 0.45657,0.135889 0.89094,0.205256 0.32056,0.05119 0.42999,0.08329 0.40759,0.119541 -0.0324,0.05241 -0.96881,-0.05954 -1.10422,-0.132002 -0.0399,-0.02135 -0.12012,-0.03881 -0.17828,-0.03881 -0.0582,0 -0.11553,-0.01582 -0.12748,-0.03518 -0.012,-0.01934 -0.054,-0.03517 -0.0934,-0.03517 -0.0394,0 -0.11364,-0.0219 -0.16499,-0.04867 -0.0514,-0.02677 -0.15635,-0.07821 -0.23336,-0.114309 -0.20809,-0.09756 -0.48482,-0.389343 -0.53705,-0.56628 -0.24734,-0.837838 0.65454,-1.869323 2.40047,-2.745447 0.36291,-0.182111 0.82435,-0.394191 0.85767,-0.394191 0.0143,0 0.0888,-0.03031 0.16544,-0.06736 0.31368,-0.151554 1.81718,-0.658342 2.52925,-0.852536 0.0774,-0.0211 0.21191,-0.05862 0.29896,-0.08337 0.27623,-0.07854 0.84801,-0.222009 1.26618,-0.317696 0.22246,-0.05091 0.45988,-0.10606 0.52758,-0.122564 0.0677,-0.01651 0.2418,-0.05364 0.38689,-0.08253 0.14508,-0.02888 0.39041,-0.0778 0.54516,-0.108693 1.06577,-0.212754 2.28548,-0.3938 3.20064,-0.475083 1.65484,-0.146979 2.17301,-0.176322 3.11454,-0.176374 1.22815,-7.1e-5 2.188,0.06841 3.04053,0.216908 0.3539,0.06165 0.9786,0.222063 1.08105,0.277608 0.0336,0.01821 0.0852,0.03311 0.11479,0.03311 0.0295,0 0.0812,0.0142 0.11478,0.03156 0.0336,0.01736 0.1323,0.06064 0.21935,0.09617 0.53976,0.220345 1.06825,0.63248 1.24013,0.967105 0.29584,0.575964 0.17076,1.107588 -0.39555,1.681199 -0.51059,0.517185 -1.1819,0.905451 -2.37455,1.373389 -0.0387,0.01518 -0.13366,0.05248 -0.21104,0.08289 -0.0774,0.03041 -0.27522,0.09747 -0.43964,0.149034 -0.16443,0.05156 -0.33062,0.106501 -0.3693,0.122093 -0.12168,0.04904 -0.93349,0.276789 -1.12551,0.315755 -0.0774,0.0157 -0.24356,0.05557 -0.3693,0.08861 -0.12574,0.03303 -0.29193,0.07322 -0.36931,0.08932 -0.5166,0.107449 -0.68855,0.142171 -0.84412,0.170462 -0.0967,0.01759 -0.3183,0.05834 -0.4924,0.09055 -0.1741,0.03222 -0.41943,0.07133 -0.54516,0.08692 -0.63471,0.07871 -0.86874,0.123579 -0.95528,0.18315 -0.0973,0.06694 -0.8138,1.005658 -1.51498,1.984684 -0.22313,0.311553 -0.49427,0.675581 -0.60252,0.808953 -0.2328,0.286818 -0.25228,0.387435 -0.0812,0.419525 0.19175,0.03597 1.07644,-0.0064 1.36024,-0.06514 0.46141,-0.09551 0.64191,-0.144595 0.86171,-0.234344 0.0387,-0.0158 0.12574,-0.0485 0.19345,-0.07267 0.28426,-0.10147 0.9241,-0.444 1.29425,-0.692849 0.53236,-0.357913 0.87827,-0.658808 1.11162,-0.966963 0.32103,-0.42395 0.41488,-0.506093 0.52843,-0.462522 0.0833,0.03196 0.071,0.234868 -0.0191,0.316 -0.10246,0.09224 -0.27656,0.402501 -0.27696,0.493561 -10e-4,0.208159 0.25344,0.545316 0.49773,0.659743 0.46009,0.215515 0.79467,0.213642 1.48915,-0.0083 0.23384,-0.07474 0.63072,-0.325666 0.87424,-0.552729 0.12806,-0.119405 0.36063,-0.261452 0.42808,-0.261452 0.14083,0 0.16963,0.08018 0.14481,0.403095 -0.0273,0.354789 0.002,0.446806 0.1782,0.557054 0.251,0.1572 0.44843,0.200521 0.91383,0.200521 0.40992,0 0.49766,-0.01283 1.01319,-0.148064 0.21186,-0.05558 0.45304,-0.141256 0.49065,-0.174295 0.0183,-0.01615 0.0548,-0.02936 0.0809,-0.02936 0.0556,0 0.75584,-0.339808 1.01116,-0.4907 0.0967,-0.05716 0.22657,-0.129871 0.28855,-0.161574 0.062,-0.0317 0.13118,-0.07993 0.15379,-0.107159 0.0226,-0.02724 0.0548,-0.04952 0.0716,-0.04952 0.0488,0 0.63289,-0.424857 0.6454,-0.469473 0.006,-0.02229 0.0297,-0.23836 0.0522,-0.480166 0.0416,-0.447276 0.0745,-0.639566 0.16881,-0.98481 0.30459,-1.115263 0.90488,-2.286578 1.69436,-3.306116 0.33219,-0.428983 0.34689,-0.44649 0.61837,-0.736508 0.85246,-0.910669 1.66983,-1.624268 2.42685,-2.118743 0.46489,-0.303656 0.65306,-0.380044 0.93206,-0.378372 0.35758,0.0021 0.59791,0.207666 0.59791,0.511319 0,0.15155 -0.007,0.17621 -0.12743,0.471273 -0.19938,0.487111 -1.207,1.964637 -2.0508,3.00719 -0.25607,0.316387 -1.08855,1.316172 -1.14437,1.374366 -0.0199,0.02081 -0.17084,0.186541 -0.33527,0.368294 -0.71916,0.794941 -1.80593,1.828216 -2.31223,2.19844 -0.13847,0.101251 1.3e-4,0.899307 0.21552,1.240406 0.1091,0.172835 0.43254,0.46357 0.51571,0.46357 0.0354,0 0.0743,0.01582 0.0862,0.03517 0.0329,0.05331 0.5751,0.04134 0.76716,-0.01694 0.0931,-0.02825 0.23553,-0.0873 0.31655,-0.131244 0.19054,-0.103342 0.61961,-0.41669 0.71,-0.518506 l 0.0703,-0.07917 -0.13179,-0.110684 c -0.28537,-0.239668 -0.24266,-0.634504 0.10128,-0.936491 0.11042,-0.09695 0.1459,-0.108478 0.30522,-0.09918 0.16168,0.0094 0.18883,0.02322 0.26324,0.133622 0.0671,0.09951 0.0794,0.153429 0.0642,0.281373 -0.0469,0.396497 -0.0545,0.368055 0.10137,0.380899 0.11724,0.0097 0.45433,-0.0359 0.89688,-0.121242 0.0484,-0.0093 0.15915,-0.03064 0.2462,-0.04736 0.0871,-0.01672 0.20283,-0.04759 0.25728,-0.06859 0.0545,-0.021 0.13777,-0.03819 0.18514,-0.03819 0.0473,0 0.1136,-0.01434 0.14718,-0.03187 0.0336,-0.01753 0.16396,-0.05885 0.28969,-0.09181 0.25555,-0.06701 0.23004,-0.05813 0.74219,-0.258219 0.44657,-0.174463 0.55976,-0.182782 0.66608,-0.04896 0.0683,0.08592 0.0745,0.124705 0.0562,0.347256 -0.0114,0.137794 -0.0369,0.293141 -0.0567,0.345215 -0.0198,0.05207 -0.036,0.301526 -0.036,0.554336 0,0.454679 -0.0455,0.732015 -0.11988,0.731172 -0.0868,-9.11e-4 -0.19401,-0.245687 -0.23449,-0.534972 -0.0346,-0.247845 -0.032,-0.359904 0.0169,-0.693848 0.032,-0.219047 0.0499,-0.406575 0.0397,-0.41673 -0.0181,-0.01812 -0.28379,0.05519 -0.35294,0.09738 -0.0193,0.0118 -0.13014,0.05036 -0.24621,0.08568 -0.11606,0.03532 -0.24268,0.07646 -0.28137,0.09142 -0.0387,0.01496 -0.17322,0.05447 -0.29896,0.0878 -0.12574,0.03333 -0.26819,0.0726 -0.31655,0.08727 -0.0484,0.01466 -0.21454,0.05371 -0.3693,0.08676 -0.15476,0.03305 -0.33677,0.07396 -0.40448,0.0909 -0.23484,0.05877 -0.81451,0.139471 -1.00176,0.139471 -0.18631,0 -0.19051,0.0024 -0.41098,0.233781 -0.218,0.228803 -0.55764,0.475983 -0.80308,0.584467 -0.36272,0.160324 -0.47444,0.184149 -0.86171,0.183767 -0.3757,-3.99e-4 -0.39469,-0.0042 -0.6567,-0.132722 -0.38587,-0.189268 -0.61228,-0.44793 -0.7763,-0.886879 -0.0955,-0.255551 -0.13215,-0.390689 -0.13215,-0.487213 0,-0.138774 -0.0855,-0.149979 -0.23672,-0.03104 -0.5972,0.469625 -1.79923,1.076166 -2.55943,1.291493 -0.11607,0.03288 -0.25964,0.07414 -0.31905,0.09171 -0.0594,0.01756 -0.15568,0.03193 -0.21396,0.03193 -0.0583,0 -0.1975,0.01839 -0.30941,0.04086 -0.15671,0.03147 -0.2813,0.03087 -0.54223,-0.0026 -0.18632,-0.02391 -0.37043,-0.05554 -0.40912,-0.07031 -0.24622,-0.09396 -0.43367,-0.216477 -0.53555,-0.350043 -0.10011,-0.131252 -0.11513,-0.178128 -0.11513,-0.359245 0,-0.225475 -0.0363,-0.258728 -0.16046,-0.146746 -0.46113,0.416104 -1.23119,0.71205 -1.85363,0.712386 -0.67063,3.99e-4 -1.24187,-0.340423 -1.34309,-0.801248 -0.0137,-0.06236 -0.0389,-0.113375 -0.056,-0.113375 -0.0171,0 -0.13057,0.08895 -0.2522,0.197663 -0.53168,0.475211 -1.29268,0.929949 -2.07738,1.241359 -0.15043,0.05969 -0.30381,0.108537 -0.34085,0.108537 -0.0371,0 -0.0761,0.01408 -0.0867,0.03128 -0.0106,0.01721 -0.0709,0.03942 -0.13397,0.04935 -0.0631,0.0099 -0.18586,0.0359 -0.27291,0.0577 -0.42281,0.105895 -0.52699,0.114541 -1.23795,0.102743 l -0.74279,-0.01232 -0.22707,0.281304 c -0.12489,0.154718 -0.29139,0.352528 -0.37,0.439578 -0.61558,0.681658 -1.1829,1.266185 -1.2289,1.266185 -0.0171,0 0.0371,-0.09348 0.1204,-0.207742 z m 1.85382,-2.509888 c 0.41186,-0.637438 1.37969,-2.034816 1.70188,-2.45723 0.14614,-0.191604 0.13019,-0.220272 -0.10679,-0.19189 -0.11124,0.01332 -0.36051,0.04015 -0.55396,0.05962 -0.79397,0.07991 -0.92288,0.0954 -1.10791,0.13311 -0.46989,0.09577 -0.55603,0.115394 -0.73861,0.168257 -0.29041,0.08408 -0.67587,0.281157 -0.83943,0.429183 -0.08,0.07236 -0.14538,0.145199 -0.14538,0.161859 0,0.01666 -0.0208,0.05528 -0.0462,0.08582 -0.0254,0.03054 -0.0664,0.138621 -0.0912,0.240179 -0.13294,0.545982 0.38503,1.241905 1.21014,1.625905 0.22644,0.105381 0.37164,0.137872 0.44727,0.100086 0.0332,-0.01659 0.15479,-0.176296 0.27019,-0.354899 z m 17.04349,-1.313747 c 0.0792,-0.07924 0.0619,-0.412279 -0.0223,-0.428276 -0.0798,-0.01515 -0.24065,0.166102 -0.24065,0.271079 0,0.09383 0.0906,0.21416 0.16121,0.21416 0.0246,0 0.0704,-0.02563 0.10176,-0.05696 z m -2.68524,-1.08738 c 0.24445,-0.197512 1.42572,-1.356643 1.80881,-1.774918 0.25901,-0.282804 0.77397,-0.881475 1.05397,-1.225292 0.11559,-0.141938 0.28954,-0.355606 0.38655,-0.474821 0.097,-0.119212 0.24733,-0.311715 0.33404,-0.427782 0.0867,-0.116067 0.16594,-0.218944 0.17607,-0.228616 0.0208,-0.01984 0.38967,-0.524836 0.65519,-0.896882 0.25929,-0.363312 0.67173,-1.018188 0.82904,-1.316364 0.14191,-0.268977 0.20004,-0.54069 0.13599,-0.635671 -0.0519,-0.07696 -0.44158,-0.06594 -0.60069,0.01698 -0.14424,0.07518 -0.4782,0.291716 -0.57987,0.375994 -0.039,0.03237 -0.1518,0.119415 -0.25056,0.193444 -0.85591,0.641574 -1.94642,1.744699 -2.59766,2.627688 -0.61448,0.83315 -1.05951,1.65567 -1.3878,2.564978 -0.19746,0.546929 -0.34844,1.395962 -0.24823,1.395962 0.0243,0 0.15261,-0.08762 0.28515,-0.194705 z m 25.38664,4.013879 c -0.0105,-0.01054 -0.20811,-0.03483 -0.43903,-0.05399 -0.38,-0.03151 -0.68736,-0.07639 -1.19364,-0.174252 -0.0967,-0.0187 -0.27873,-0.0675 -0.40447,-0.108447 -1.31286,-0.42756 -1.9524,-1.108611 -2.13074,-2.26906 -0.11453,-0.745169 0.005,-1.789504 0.31847,-2.778574 0.0245,-0.07738 0.064,-0.21191 0.0877,-0.29896 0.0237,-0.08705 0.0653,-0.210249 0.0925,-0.273775 0.0272,-0.06353 0.0494,-0.13892 0.0494,-0.167543 0,-0.02862 0.0139,-0.07953 0.0309,-0.113116 0.0718,-0.141949 0.14499,-0.330515 0.14499,-0.373408 0,-0.0431 0.0672,-0.206161 0.14294,-0.346658 0.0181,-0.03359 0.0329,-0.07771 0.0329,-0.09804 0,-0.02033 0.10265,-0.267753 0.22811,-0.549821 0.12546,-0.282066 0.21949,-0.526795 0.20896,-0.54384 -0.0106,-0.01705 -0.10131,-0.03091 -0.20173,-0.0308 -0.21117,2.66e-4 -0.32329,0.06435 -0.76619,0.438278 -0.13589,0.114724 -0.1758,0.146587 -0.4189,0.334408 -0.087,0.06721 -0.16607,0.131095 -0.17574,0.141976 -0.01,0.01087 -0.16795,0.128813 -0.35172,0.262072 -0.18378,0.133258 -0.34205,0.251889 -0.35172,0.263624 -0.0298,0.03614 -0.75225,0.55408 -1.0975,0.786817 -0.17983,0.12122 -0.48524,0.329456 -0.67868,0.462751 -0.83623,0.576203 -2.27032,1.439281 -3.09512,1.862729 -0.33768,0.173366 -0.82814,0.364646 -1.03757,0.404661 -0.20109,0.03842 -0.8257,-0.02119 -1.0231,-0.09764 -0.43004,-0.166553 -0.39393,-0.915511 0.08,-1.659222 0.0431,-0.06771 0.0961,-0.154756 0.11765,-0.193445 0.0216,-0.03869 0.0612,-0.105235 0.0881,-0.147881 0.0269,-0.04264 0.0358,-0.09013 0.0198,-0.105515 -0.016,-0.01539 -0.1183,0.07446 -0.22729,0.199666 -0.28754,0.330331 -1.15361,1.191565 -1.35882,1.351225 -0.0967,0.07525 -0.27443,0.182089 -0.39491,0.23741 -0.492,0.225917 -0.78612,0.05125 -0.73514,-0.436562 0.0229,-0.218955 0.12578,-0.448906 0.32831,-0.733751 0.12568,-0.176759 0.14349,-0.241491 0.0665,-0.241491 -0.0759,0 -0.24842,0.159025 -1.20264,1.10867 -0.95861,0.954031 -1.17544,1.154694 -1.89821,1.756674 -0.52717,0.439067 -1.01469,0.764518 -1.12273,0.749496 -0.24104,-0.03351 0.0397,-0.335147 0.85561,-0.919247 0.28365,-0.203064 0.55529,-0.401334 0.60365,-0.440599 0.0484,-0.03926 0.22246,-0.176735 0.3869,-0.305494 0.4946,-0.387308 0.69099,-0.563658 1.38928,-1.24755 0.68579,-0.671647 1.10625,-0.998433 1.25707,-0.97702 0.0677,0.0096 0.081,0.03562 0.0901,0.175971 0.009,0.141966 -0.01,0.197775 -0.13769,0.404475 -0.33864,0.547498 -0.41418,0.783836 -0.2902,0.907821 0.14301,0.143013 0.5974,-0.08513 1.12366,-0.564192 0.43782,-0.398544 0.94445,-0.977629 1.72047,-1.966512 1.03947,-1.324603 1.09736,-1.390723 1.21776,-1.390723 0.0341,0 0.0855,0.0335 0.11415,0.07443 0.0786,0.11218 0.002,0.262156 -0.40712,0.793802 -0.27963,0.36368 -0.49343,0.676046 -0.87846,1.283442 -0.75068,1.184236 -0.92536,1.591867 -0.80003,1.866944 0.0568,0.124624 0.13445,0.157924 0.51689,0.221639 l 0.35011,0.05833 0.27748,-0.09393 c 0.15261,-0.05166 0.33287,-0.118279 0.40058,-0.148044 0.25368,-0.111524 1.15143,-0.567888 1.29327,-0.657427 0.0811,-0.05117 0.1553,-0.09304 0.16498,-0.09304 0.01,0 0.1042,-0.0554 0.21004,-0.123102 0.10584,-0.06771 0.20217,-0.123102 0.21406,-0.123102 0.0119,0 0.0735,-0.03957 0.1369,-0.08793 0.0634,-0.04836 0.12717,-0.08793 0.14169,-0.08793 0.067,0 2.19256,-1.42804 2.86146,-1.922443 0.75864,-0.56072 1.36143,-1.021613 1.62507,-1.242524 0.10293,-0.08624 0.11445,-0.109061 0.0703,-0.139214 -0.13208,-0.09029 -4.40401,0.01385 -6.40127,0.156045 -0.41591,0.02961 -0.97778,0.06817 -1.2486,0.08568 -0.27082,0.01751 -0.57154,0.04157 -0.66827,0.05348 -0.0967,0.0119 -0.47657,0.03816 -0.84412,0.05836 -1.00893,0.05545 -1.63266,0.09307 -2.21583,0.133629 -0.82726,0.05754 -2.53286,0.109125 -3.47089,0.104968 -0.83725,-0.0037 -0.84969,-0.0048 -0.59145,-0.05244 0.14508,-0.02676 0.59616,-0.06412 1.0024,-0.08302 0.94078,-0.04378 1.68345,-0.09511 1.76894,-0.122239 0.0367,-0.01164 0.31052,-0.03697 0.60851,-0.05627 1.1085,-0.0718 1.49732,-0.102906 1.72006,-0.137612 0.12574,-0.01959 0.32967,-0.03594 0.45318,-0.03633 0.12351,-3.99e-4 0.32135,-0.01593 0.43965,-0.03455 0.25918,-0.04078 1.15251,-0.137288 1.4461,-0.156227 0.77675,-0.05011 1.31846,-0.09233 1.42348,-0.110948 0.38843,-0.06886 3.9406,-0.188225 5.65256,-0.189938 0.80262,-7.9e-4 1.48485,-0.01598 1.52997,-0.03402 0.17551,-0.0702 0.92434,-0.758718 1.07487,-0.988298 0.0821,-0.125252 0.1494,-0.239294 0.14948,-0.253426 4e-4,-0.03419 0.16641,-0.298977 0.75653,-1.205318 0.80819,-1.241262 1.98638,-2.56672 2.8404,-3.195408 0.34673,-0.255251 0.88322,-0.37255 0.99634,-0.217842 0.10701,0.146341 0.0558,0.262766 -0.35678,0.810535 -0.73153,0.971309 -2.21536,2.52694 -3.7274,3.907751 -0.32578,0.297506 -0.365,0.3482 -0.55289,0.714547 -0.11123,0.216877 -0.20224,0.41672 -0.20224,0.444092 0,0.07121 0.0799,0.08108 0.82654,0.102103 1.32403,0.03728 2.57023,0.125028 3.79855,0.267453 0.72506,0.08407 0.85293,0.09831 1.20576,0.134306 0.1989,0.02029 0.37558,0.04551 0.39263,0.05604 0.0171,0.01054 0.16294,0.03489 0.32421,0.05411 0.51457,0.06134 0.78287,0.103718 0.8876,0.14019 0.0561,0.01953 0.14687,0.03551 0.20174,0.03551 0.0549,0 0.16725,0.01553 0.24974,0.03451 0.0825,0.01899 0.27661,0.05974 0.43136,0.09059 0.79225,0.15789 1.55552,0.344618 1.80422,0.441386 0.0444,0.01729 0.10534,0.03144 0.13536,0.03144 0.03,0 0.10446,0.02191 0.16541,0.04868 0.061,0.02678 0.2058,0.07681 0.32187,0.11118 0.11606,0.03437 0.23477,0.07443 0.26378,0.08902 0.029,0.01458 0.21171,0.09022 0.40597,0.168085 1.20755,0.48398 2.09169,1.234715 2.41604,2.051492 0.0943,0.237383 0.11058,0.936952 0.0277,1.189407 -0.0591,0.180251 -0.22406,0.502744 -0.32375,0.633093 -0.28092,0.367364 -0.88691,0.865261 -1.3521,1.110933 -0.48923,0.258371 -0.49555,0.261376 -0.84222,0.400847 -0.15339,0.06171 -0.31056,0.125343 -0.34924,0.1414 -0.0387,0.01606 -0.102,0.03719 -0.14069,0.04695 -0.0387,0.0098 -0.1574,0.04856 -0.26379,0.08621 -0.1064,0.03765 -0.28841,0.09652 -0.40448,0.130825 -0.11606,0.0343 -0.25059,0.07419 -0.29895,0.08863 -0.10822,0.03231 -0.50163,0.13498 -0.66827,0.174396 -0.0677,0.01601 -0.21155,0.05432 -0.31964,0.08514 -0.10809,0.03081 -0.22568,0.05602 -0.26129,0.05602 -0.0356,0 -0.11336,0.01454 -0.17276,0.03231 -0.18743,0.05606 -0.57531,0.127999 -1.128,0.209232 -0.11607,0.01706 -0.33765,0.04967 -0.49241,0.07248 -0.85875,0.126538 -1.32791,0.176123 -2.05755,0.21746 -0.69812,0.03955 -2.5804,0.07704 -2.60554,0.05189 z m 2.64071,-0.338363 c 0.31918,-0.02057 0.70695,-0.05229 0.86171,-0.0705 0.15475,-0.01821 0.43173,-0.05019 0.61551,-0.07108 0.55189,-0.06274 0.8104,-0.09844 1.14308,-0.157848 0.1741,-0.03109 0.39568,-0.06909 0.4924,-0.08444 0.0967,-0.01535 0.30248,-0.05526 0.45724,-0.08868 0.15476,-0.03342 0.34468,-0.07403 0.42206,-0.09023 0.0774,-0.0162 0.24356,-0.05508 0.3693,-0.08638 0.12574,-0.03131 0.28402,-0.07062 0.35172,-0.08737 0.0677,-0.01675 0.21015,-0.05655 0.31655,-0.08845 0.10639,-0.0319 0.24093,-0.07138 0.29896,-0.08775 0.16715,-0.04713 0.62286,-0.199714 0.73861,-0.247295 0.058,-0.02385 0.13717,-0.05534 0.17586,-0.06996 0.38271,-0.144624 1.12162,-0.514277 1.3078,-0.654261 0.0616,-0.04629 0.12274,-0.08418 0.13591,-0.08418 0.0294,0 0.41193,-0.326969 0.56666,-0.484367 0.15893,-0.161659 0.41196,-0.555714 0.49073,-0.764233 0.0917,-0.24263 0.0911,-0.775077 -0.001,-1.020182 -0.07,-0.186012 -0.29831,-0.556094 -0.46138,-0.747769 -0.35379,-0.415812 -1.29053,-0.965385 -2.20213,-1.291951 -0.23378,-0.08375 -0.73217,-0.24682 -0.90925,-0.297506 -0.0871,-0.02492 -0.22949,-0.06574 -0.31655,-0.09071 -0.087,-0.02497 -0.19784,-0.05354 -0.2462,-0.06349 -0.0484,-0.0099 -0.1908,-0.04374 -0.31654,-0.07509 -0.12574,-0.03136 -0.29984,-0.07092 -0.38689,-0.08791 -0.0871,-0.01699 -0.27698,-0.05757 -0.42206,-0.09017 -0.14509,-0.0326 -0.34293,-0.07185 -0.43965,-0.08721 -0.0967,-0.01536 -0.33413,-0.05451 -0.52758,-0.08699 -0.19344,-0.03248 -0.4546,-0.07269 -0.58034,-0.08936 -0.12573,-0.01666 -0.40271,-0.05556 -0.6155,-0.08643 -0.21279,-0.03087 -0.52142,-0.06958 -0.68585,-0.086 -0.16443,-0.01643 -0.35436,-0.03965 -0.42206,-0.05161 -0.0677,-0.01195 -0.28929,-0.03881 -0.49241,-0.05967 -0.36723,-0.03771 -0.6273,-0.05896 -1.63549,-0.133596 -0.29017,-0.02148 -0.7175,-0.055 -0.94964,-0.07448 -0.23213,-0.01948 -0.6199,-0.03692 -0.86171,-0.03875 -0.2418,-0.0018 -0.60583,-0.01441 -0.80895,-0.02797 -0.20311,-0.01355 -0.40522,-0.01215 -0.44912,0.0031 -0.0555,0.01931 -0.12245,0.119607 -0.21982,0.329413 -0.077,0.165909 -0.14001,0.31358 -0.14001,0.32816 0,0.01458 -0.0396,0.108528 -0.0879,0.208775 -0.0484,0.100249 -0.0879,0.198391 -0.0879,0.218091 0,0.03652 -0.0137,0.06864 -0.11715,0.275128 -0.0323,0.06444 -0.0587,0.144893 -0.0587,0.17879 0,0.0339 -0.0109,0.07248 -0.0241,0.08573 -0.0132,0.01325 -0.0456,0.08316 -0.072,0.155343 -0.0757,0.2076 -0.22356,0.6487 -0.25617,0.764331 -0.0163,0.05803 -0.055,0.192565 -0.0859,0.29896 -0.25555,0.880456 -0.37965,1.895715 -0.3019,2.470043 0.0893,0.659728 0.32642,1.142927 0.74426,1.516656 0.24155,0.216045 0.27829,0.239974 0.62889,0.409606 0.43231,0.209168 0.68814,0.291337 1.2486,0.40104 0.3654,0.07152 0.46969,0.08419 1.03375,0.125565 0.25906,0.019 0.47932,0.04286 0.48948,0.05302 0.0333,0.03334 1.69973,0.02033 2.29291,-0.0179 z m -5.24184,-8.261866 c 0.0465,-0.087 0.0458,-0.107829 -0.004,-0.107829 -0.0409,0 -0.13264,0.101807 -0.13466,0.149481 -0.002,0.05521 0.10356,0.02332 0.13833,-0.04165 z m 1.71562,-1.980728 c 0.70962,-0.690512 1.67456,-1.694653 2.08775,-2.172585 0.50797,-0.587558 1.12192,-1.360947 1.12192,-1.413272 0,-0.119119 -0.2502,-0.01688 -0.60899,0.248868 -0.18673,0.138294 -0.83985,0.768 -1.19282,1.150043 -0.40786,0.441466 -1.28763,1.604238 -1.52193,2.0115 -0.0193,0.03363 -0.0866,0.135213 -0.14947,0.225748 -0.0629,0.09054 -0.11431,0.181543 -0.11431,0.202239 0,0.08598 0.0957,0.02203 0.37785,-0.252541 z m -16.37441,5.153075 c 0.0177,-0.09168 0.13407,-0.101909 0.13407,-0.01178 0,0.05034 -0.0226,0.07292 -0.0729,0.07292 -0.0503,0 -0.0693,-0.01894 -0.0611,-0.06115 z"
         id="path836" /></g></g></svg>
