<?xml version="1.0" encoding="UTF-8" standalone="no"?>
<!-- Created with Inkscape (http://www.inkscape.org/) -->

<svg
   width="85mm"
   height="52.625999mm"
   viewBox="0 0 85 52.626"
   version="1.1"
   id="svg5"
   inkscape:version="1.2.1 (0f2f062aeb, 2022-09-21, custom)"
   sodipodi:docname="metro_logo.svg"
   xmlns:inkscape="http://www.inkscape.org/namespaces/inkscape"
   xmlns:sodipodi="http://sodipodi.sourceforge.net/DTD/sodipodi-0.dtd"
   xmlns="http://www.w3.org/2000/svg"
   xmlns:svg="http://www.w3.org/2000/svg">
  <sodipodi:namedview
     id="namedview7"
     pagecolor="#505050"
     bordercolor="#ffffff"
     borderopacity="1"
     inkscape:showpageshadow="0"
     inkscape:pageopacity="0"
     inkscape:pagecheckerboard="1"
     inkscape:deskcolor="#505050"
     inkscape:document-units="mm"
     showgrid="false"
     inkscape:zoom="2.8284272"
     inkscape:cx="119.50104"
     inkscape:cy="94.221976"
     inkscape:window-width="1920"
     inkscape:window-height="1016"
     inkscape:window-x="0"
     inkscape:window-y="0"
     inkscape:window-maximized="1"
     inkscape:current-layer="layer1" />
  <defs
     id="defs2">
    <rect
       x="335.80945"
       y="497.41568"
       width="158.77008"
       height="127.44593"
       id="rect564" />
    <rect
       x="290.57391"
       y="420.81421"
       width="408.09967"
       height="102.57723"
       id="rect420" />
    <rect
       x="170.36244"
       y="228.11955"
       width="328.73929"
       height="270.09338"
       id="rect236" />
  </defs>
  <g
     inkscape:label="Layer 1"
     inkscape:groupmode="layer"
     id="layer1"
     transform="translate(-76.781746,-52.20903)">
    <text
       xml:space="preserve"
       transform="scale(0.26458333)"
       id="text234"
       style="font-weight:bold;font-size:74.6667px;font-family:'Plus Jakarta Sans';-inkscape-font-specification:'Plus Jakarta Sans Bold';white-space:pre;shape-inside:url(#rect236);display:inline;fill:#ffffff" />
    <g
       id="g272"
       transform="translate(2.5,2.5)"
       style="fill:#0f181a;fill-opacity:1">
      <g
         id="g445"
         transform="matrix(1.5843096,0,0,1.5797757,-81.508383,-106.04266)"
         style="fill:#0f181a;fill-opacity:1">
        <path
           d="m 103.82271,130.08375 v -12.64356 h -3.911601 v -2.07434 h 10.075341 v 2.07434 h -3.85234 v 12.64356 z"
           id="path428"
           style="font-weight:600;font-size:74.6667px;font-family:'Plus Jakarta Sans';-inkscape-font-specification:'Plus Jakarta Sans Semi-Bold';white-space:pre;fill:#0f181a;stroke-width:0.264583;fill-opacity:1" />
        <path
           d="m 111.94224,130.08375 v -14.7179 h 9.69998 v 2.07434 h -7.36882 v 4.22769 h 5.89103 l 1.08268,2.07433 h -6.97371 v 4.26721 h 7.36882 v 2.07433 z"
           id="path430"
           style="font-weight:600;font-size:74.6667px;font-family:'Plus Jakarta Sans';-inkscape-font-specification:'Plus Jakarta Sans Semi-Bold';white-space:pre;fill:#0f181a;stroke-width:0.264583;fill-opacity:1"
           sodipodi:nodetypes="ccccccccccccc" />
        <path
           d="m 130.88781,130.32082 q -1.56069,0 -2.90407,-0.57291 -1.32362,-0.57292 -2.3114,-1.58045 -0.96802,-1.02729 -1.52118,-2.41018 -0.55315,-1.38289 -0.55315,-3.04236 0,-1.63971 0.5334,-3.0226 0.55315,-1.40264 1.54093,-2.41018 0.98778,-1.02729 2.3114,-1.58044 1.32363,-0.57291 2.90407,-0.57291 1.56069,0 2.78554,0.5334 1.2446,0.5334 2.09409,1.40264 0.84949,0.84949 1.22484,1.85702 l -2.09409,0.98778 q -0.47413,-1.18533 -1.52118,-1.91629 -1.02729,-0.75071 -2.4892,-0.75071 -1.46191,0 -2.58798,0.69145 -1.12606,0.69144 -1.75824,1.91629 -0.61243,1.22484 -0.61243,2.86455 0,1.63972 0.61243,2.88432 0.63218,1.22484 1.75824,1.91629 1.12607,0.67169 2.58798,0.67169 1.46191,0 2.4892,-0.73096 1.04705,-0.73096 1.52118,-1.91629 l 2.09409,0.98778 q -0.37535,0.98778 -1.22484,1.85702 -0.84949,0.86925 -2.09409,1.40265 -1.22485,0.5334 -2.78554,0.5334 z"
           id="path432"
           style="font-weight:600;font-size:74.6667px;font-family:'Plus Jakarta Sans';-inkscape-font-specification:'Plus Jakarta Sans Semi-Bold';white-space:pre;fill:#0f181a;stroke-width:0.264583;fill-opacity:1" />
        <path
           d="m 138.94807,130.08375 v -14.7179 h 2.33115 v 6.47983 h 6.81567 v -6.47983 h 2.3114 v 14.7179 h -2.3114 v -6.16374 h -6.81567 v 6.16374 z"
           id="path434"
           style="font-weight:600;font-size:74.6667px;font-family:'Plus Jakarta Sans';-inkscape-font-specification:'Plus Jakarta Sans Semi-Bold';white-space:pre;fill:#0f181a;stroke-width:0.264583;fill-opacity:1" />
      </g>
      <path
         id="rect499"
         style="fill:#0f181a;stroke-width:0.299459;fill-opacity:1"
         d="M 76.781746,52.20903 V 74.209238 H 156.78151 V 52.20903 Z m 69.046944,2.500106 c 1.20341,0 2.31121,0.213393 3.32383,0.640788 1.0273,0.412655 1.92249,1.002522 2.68563,1.768884 0.77781,0.766361 1.37946,1.665352 1.80505,2.696993 0.4256,1.031641 0.63873,2.158992 0.63873,3.382222 0,1.223233 -0.22016,2.350582 -0.66043,3.382223 -0.4256,1.03164 -1.02022,1.930631 -1.78335,2.696993 -0.76314,0.766361 -1.65833,1.363194 -2.68563,1.790588 -1.02729,0.427393 -2.13509,0.641305 -3.32383,0.641305 -1.18872,0 -2.29705,-0.213912 -3.32434,-0.641305 -1.01263,-0.427394 -1.90782,-1.024227 -2.68562,-1.790588 -0.76314,-0.766362 -1.3648,-1.665353 -1.80506,-2.696993 -0.42561,-1.031641 -0.63821,-2.15899 -0.63821,-3.382223 0,-1.22323 0.2126,-2.350581 0.63821,-3.382222 0.44026,-1.046379 1.04192,-1.94537 1.80506,-2.696993 0.76313,-0.766362 1.65833,-1.356229 2.68562,-1.768884 1.02729,-0.427395 2.13562,-0.640788 3.32434,-0.640788 z m -66.546838,0.2651 h 2.421557 l 5.552633,7.727177 5.453931,-7.727177 H 95.13153 V 71.443515 H 92.555977 V 59.641651 l -5.217253,7.15977 h -0.264066 l -5.195549,-7.285343 v 11.927437 h -2.597257 z m 17.847489,0 h 10.808639 v 2.321305 h -8.211381 v 4.730978 h 6.564461 l 1.20664,2.320788 h -7.771101 v 4.775419 h 8.211381 v 2.320789 H 97.129341 Z m 12.806449,0 h 11.22671 v 2.321305 h -4.29276 v 14.147974 h -2.57556 V 57.295541 h -4.35839 z m 13.22452,0 h 5.96553 c 1.10067,0 2.06924,0.206426 2.90576,0.619084 0.83652,0.397916 1.48944,0.987269 1.95906,1.768367 0.4843,0.766361 0.72657,1.687803 0.72657,2.763656 0,1.134804 -0.286,2.107077 -0.85835,2.917651 -0.55767,0.810574 -1.31364,1.400443 -2.26756,1.768884 l 3.78633,6.631637 h -2.94969 l -3.4711,-6.189803 h -1.32964 l 1.30173,-2.320789 h 0.24081 c 0.6017,0 1.12296,-0.118181 1.56321,-0.353983 0.44027,-0.235803 0.77754,-0.559894 1.01235,-0.972551 0.24949,-0.427393 0.37413,-0.928497 0.37413,-1.503267 0,-0.574771 -0.12464,-1.068389 -0.37413,-1.481047 -0.23481,-0.427393 -0.57208,-0.752001 -1.01235,-0.973067 -0.44025,-0.235802 -0.96151,-0.353467 -1.56321,-0.353467 h -3.41219 v 5.102531 0.534851 2.320789 3.334163 2.85564 h -2.59726 z m 22.66838,2.10013 c -0.85117,0 -1.63629,0.155079 -2.35541,0.464571 -0.70442,0.309493 -1.32116,0.743762 -1.8495,1.303797 -0.52832,0.560033 -0.93897,1.208731 -1.23248,1.945617 -0.27884,0.736887 -0.41858,1.540147 -0.41858,2.409672 0,0.869526 0.13974,1.680269 0.41858,2.431893 0.29351,0.736886 0.70416,1.385068 1.23248,1.945101 0.52834,0.545296 1.1521,0.9726 1.87121,1.282092 0.7191,0.309492 1.4972,0.464572 2.3337,0.464572 0.8512,0 1.62876,-0.15508 2.3332,-0.464572 0.71908,-0.309492 1.34287,-0.736796 1.8712,-1.282092 0.52832,-0.560033 0.93948,-1.208215 1.233,-1.945101 0.29351,-0.751624 0.44028,-1.562367 0.44028,-2.431893 0,-0.869525 -0.14677,-1.672785 -0.44028,-2.409672 -0.29352,-0.736886 -0.70468,-1.385584 -1.233,-1.945617 -0.52833,-0.560035 -1.15212,-0.994304 -1.8712,-1.303797 -0.70444,-0.309492 -1.482,-0.464571 -2.3332,-0.464571 z" />
    </g>
  </g>
</svg>
