<?xml version="1.0" encoding="UTF-8" standalone="no"?>
<!-- Created with Inkscape (http://www.inkscape.org/) -->

<svg
   width="80mm"
   height="47.625973mm"
   viewBox="0 0 80 47.625973"
   version="1.1"
   id="svg5"
   inkscape:version="1.2.1 (2ed6d7ae0b, 2022-08-22, custom)"
   sodipodi:docname="Metrotech00.svg"
   xmlns:inkscape="http://www.inkscape.org/namespaces/inkscape"
   xmlns:sodipodi="http://sodipodi.sourceforge.net/DTD/sodipodi-0.dtd"
   xmlns="http://www.w3.org/2000/svg"
   xmlns:svg="http://www.w3.org/2000/svg">
  <sodipodi:namedview
     id="namedview7"
     pagecolor="#505050"
     bordercolor="#ffffff"
     borderopacity="1"
     inkscape:showpageshadow="0"
     inkscape:pageopacity="0"
     inkscape:pagecheckerboard="1"
     inkscape:deskcolor="#505050"
     inkscape:document-units="mm"
     showgrid="false"
     inkscape:zoom="2.8284272"
     inkscape:cx="115.96551"
     inkscape:cy="88.565122"
     inkscape:window-width="1920"
     inkscape:window-height="1016"
     inkscape:window-x="0"
     inkscape:window-y="0"
     inkscape:window-maximized="1"
     inkscape:current-layer="layer1" />
  <defs
     id="defs2">
    <rect
       x="335.80945"
       y="497.41568"
       width="158.77008"
       height="127.44593"
       id="rect564" />
    <rect
       x="290.57391"
       y="420.81421"
       width="408.09967"
       height="102.57723"
       id="rect420" />
    <rect
       x="170.36244"
       y="228.11955"
       width="328.73929"
       height="270.09338"
       id="rect236" />
  </defs>
  <g
     inkscape:label="Layer 1"
     inkscape:groupmode="layer"
     id="layer1"
     transform="translate(-76.781746,-52.20903)">
    <text
       xml:space="preserve"
       transform="scale(0.26458333)"
       id="text234"
       style="font-weight:bold;font-size:74.6667px;font-family:'Plus Jakarta Sans';-inkscape-font-specification:'Plus Jakarta Sans Bold';white-space:pre;shape-inside:url(#rect236);display:inline;fill:#ffffff" />
    <g
       id="g445"
       transform="matrix(1.5843096,0,0,1.5797757,-81.508383,-106.04266)"
       style="fill:#000000">
      <path
         d="m 103.82271,130.08375 v -12.64356 h -3.911601 v -2.07434 h 10.075341 v 2.07434 h -3.85234 v 12.64356 z"
         id="path428"
         style="font-weight:600;font-size:74.6667px;font-family:'Plus Jakarta Sans';-inkscape-font-specification:'Plus Jakarta Sans Semi-Bold';white-space:pre;fill:#000000;stroke-width:0.264583" />
      <path
         d="m 111.94224,130.08375 v -14.7179 h 9.69998 v 2.07434 h -7.36882 v 4.22769 h 5.89103 l 1.08268,2.07433 h -6.97371 v 4.26721 h 7.36882 v 2.07433 z"
         id="path430"
         style="font-weight:600;font-size:74.6667px;font-family:'Plus Jakarta Sans';-inkscape-font-specification:'Plus Jakarta Sans Semi-Bold';white-space:pre;fill:#000000;stroke-width:0.264583"
         sodipodi:nodetypes="ccccccccccccc" />
      <path
         d="m 130.88781,130.32082 q -1.56069,0 -2.90407,-0.57291 -1.32362,-0.57292 -2.3114,-1.58045 -0.96802,-1.02729 -1.52118,-2.41018 -0.55315,-1.38289 -0.55315,-3.04236 0,-1.63971 0.5334,-3.0226 0.55315,-1.40264 1.54093,-2.41018 0.98778,-1.02729 2.3114,-1.58044 1.32363,-0.57291 2.90407,-0.57291 1.56069,0 2.78554,0.5334 1.2446,0.5334 2.09409,1.40264 0.84949,0.84949 1.22484,1.85702 l -2.09409,0.98778 q -0.47413,-1.18533 -1.52118,-1.91629 -1.02729,-0.75071 -2.4892,-0.75071 -1.46191,0 -2.58798,0.69145 -1.12606,0.69144 -1.75824,1.91629 -0.61243,1.22484 -0.61243,2.86455 0,1.63972 0.61243,2.88432 0.63218,1.22484 1.75824,1.91629 1.12607,0.67169 2.58798,0.67169 1.46191,0 2.4892,-0.73096 1.04705,-0.73096 1.52118,-1.91629 l 2.09409,0.98778 q -0.37535,0.98778 -1.22484,1.85702 -0.84949,0.86925 -2.09409,1.40265 -1.22485,0.5334 -2.78554,0.5334 z"
         id="path432"
         style="font-weight:600;font-size:74.6667px;font-family:'Plus Jakarta Sans';-inkscape-font-specification:'Plus Jakarta Sans Semi-Bold';white-space:pre;fill:#000000;stroke-width:0.264583" />
      <path
         d="m 138.94807,130.08375 v -14.7179 h 2.33115 v 6.47983 h 6.81567 v -6.47983 h 2.3114 v 14.7179 h -2.3114 v -6.16374 h -6.81567 v 6.16374 z"
         id="path434"
         style="font-weight:600;font-size:74.6667px;font-family:'Plus Jakarta Sans';-inkscape-font-specification:'Plus Jakarta Sans Semi-Bold';white-space:pre;fill:#000000;stroke-width:0.264583" />
    </g>
    <path
       id="rect499"
       style="fill:#000000;stroke-width:0.299459"
       d="M 76.781746 52.20903 L 76.781746 74.209238 L 156.78151 74.209238 L 156.78151 52.20903 L 76.781746 52.20903 z M 145.82869 54.709136 C 147.0321 54.709136 148.1399 54.922529 149.15252 55.349924 C 150.17982 55.762579 151.07501 56.352446 151.83815 57.118808 C 152.61596 57.885169 153.21761 58.78416 153.6432 59.815801 C 154.0688 60.847442 154.28193 61.974793 154.28193 63.198023 C 154.28193 64.421256 154.06177 65.548605 153.6215 66.580246 C 153.1959 67.611886 152.60128 68.510877 151.83815 69.277239 C 151.07501 70.0436 150.17982 70.640433 149.15252 71.067827 C 148.12523 71.49522 147.01743 71.709132 145.82869 71.709132 C 144.63997 71.709132 143.53164 71.49522 142.50435 71.067827 C 141.49172 70.640433 140.59653 70.0436 139.81873 69.277239 C 139.05559 68.510877 138.45393 67.611886 138.01367 66.580246 C 137.58806 65.548605 137.37546 64.421256 137.37546 63.198023 C 137.37546 61.974793 137.58806 60.847442 138.01367 59.815801 C 138.45393 58.769422 139.05559 57.870431 139.81873 57.118808 C 140.58186 56.352446 141.47706 55.762579 142.50435 55.349924 C 143.53164 54.922529 144.63997 54.709136 145.82869 54.709136 z M 79.281852 54.974236 L 81.703409 54.974236 L 87.256042 62.701413 L 92.709973 54.974236 L 95.13153 54.974236 L 95.13153 71.443515 L 92.555977 71.443515 L 92.555977 59.641651 L 87.338724 66.801421 L 87.074658 66.801421 L 81.879109 59.516078 L 81.879109 71.443515 L 79.281852 71.443515 L 79.281852 54.974236 z M 97.129341 54.974236 L 107.93798 54.974236 L 107.93798 57.295541 L 99.726599 57.295541 L 99.726599 62.026519 L 106.29106 62.026519 L 107.4977 64.347307 L 99.726599 64.347307 L 99.726599 69.122726 L 107.93798 69.122726 L 107.93798 71.443515 L 97.129341 71.443515 L 97.129341 54.974236 z M 109.93579 54.974236 L 121.1625 54.974236 L 121.1625 57.295541 L 116.86974 57.295541 L 116.86974 71.443515 L 114.29418 71.443515 L 114.29418 57.295541 L 109.93579 57.295541 L 109.93579 54.974236 z M 123.16031 54.974236 L 129.12584 54.974236 C 130.22651 54.974236 131.19508 55.180662 132.0316 55.59332 C 132.86812 55.991236 133.52104 56.580589 133.99066 57.361687 C 134.47496 58.128048 134.71723 59.04949 134.71723 60.125343 C 134.71723 61.260147 134.43123 62.23242 133.85888 63.042994 C 133.30121 63.853568 132.54524 64.443437 131.59132 64.811878 L 135.37765 71.443515 L 132.42796 71.443515 L 128.95686 65.253712 L 127.62722 65.253712 L 128.92895 62.932923 L 129.16976 62.932923 C 129.77146 62.932923 130.29272 62.814742 130.73297 62.57894 C 131.17324 62.343137 131.51051 62.019046 131.74532 61.606389 C 131.99481 61.178996 132.11945 60.677892 132.11945 60.103122 C 132.11945 59.528351 131.99481 59.034733 131.74532 58.622075 C 131.51051 58.194682 131.17324 57.870074 130.73297 57.649008 C 130.29272 57.413206 129.77146 57.295541 129.16976 57.295541 L 125.75757 57.295541 L 125.75757 62.398072 L 125.75757 62.932923 L 125.75757 65.253712 L 125.75757 68.587875 L 125.75757 71.443515 L 123.16031 71.443515 L 123.16031 54.974236 z M 145.82869 57.074366 C 144.97752 57.074366 144.1924 57.229445 143.47328 57.538937 C 142.76886 57.84843 142.15212 58.282699 141.62378 58.842734 C 141.09546 59.402767 140.68481 60.051465 140.3913 60.788351 C 140.11246 61.525238 139.97272 62.328498 139.97272 63.198023 C 139.97272 64.067549 140.11246 64.878292 140.3913 65.629916 C 140.68481 66.366802 141.09546 67.014984 141.62378 67.575017 C 142.15212 68.120313 142.77588 68.547617 143.49499 68.857109 C 144.21409 69.166601 144.99219 69.321681 145.82869 69.321681 C 146.67989 69.321681 147.45745 69.166601 148.16189 68.857109 C 148.88097 68.547617 149.50476 68.120313 150.03309 67.575017 C 150.56141 67.014984 150.97257 66.366802 151.26609 65.629916 C 151.5596 64.878292 151.70637 64.067549 151.70637 63.198023 C 151.70637 62.328498 151.5596 61.525238 151.26609 60.788351 C 150.97257 60.051465 150.56141 59.402767 150.03309 58.842734 C 149.50476 58.282699 148.88097 57.84843 148.16189 57.538937 C 147.45745 57.229445 146.67989 57.074366 145.82869 57.074366 z " />
  </g>
</svg>
