<?xml version="1.0" encoding="UTF-8" standalone="no"?>
<!-- Created with Inkscape (http://www.inkscape.org/) -->

<svg
   width="41.845833mm"
   height="63.128887mm"
   viewBox="0 0 41.845833 63.128887"
   version="1.1"
   id="svg1"
   xml:space="preserve"
   inkscape:version="1.3 (0e150ed6c4, 2023-07-21)"
   sodipodi:docname="bridge_mark.svg"
   xmlns:inkscape="http://www.inkscape.org/namespaces/inkscape"
   xmlns:sodipodi="http://sodipodi.sourceforge.net/DTD/sodipodi-0.dtd"
   xmlns:xlink="http://www.w3.org/1999/xlink"
   xmlns="http://www.w3.org/2000/svg"
   xmlns:svg="http://www.w3.org/2000/svg"><sodipodi:namedview
     id="namedview1"
     pagecolor="#505050"
     bordercolor="#ffffff"
     borderopacity="1"
     inkscape:showpageshadow="0"
     inkscape:pageopacity="0"
     inkscape:pagecheckerboard="1"
     inkscape:deskcolor="#505050"
     inkscape:document-units="mm"
     inkscape:zoom="1.4142136"
     inkscape:cx="10.960155"
     inkscape:cy="133.99673"
     inkscape:window-width="1920"
     inkscape:window-height="1017"
     inkscape:window-x="-8"
     inkscape:window-y="-8"
     inkscape:window-maximized="1"
     inkscape:current-layer="layer1" /><defs
     id="defs1"><rect
       x="212.35648"
       y="47.190327"
       width="103.81872"
       height="72.595367"
       id="rect3" /><linearGradient
       id="linearGradient2"
       inkscape:collect="always"><stop
         style="stop-color:#271000;stop-opacity:1;"
         offset="0"
         id="stop2" /><stop
         style="stop-color:#63583b;stop-opacity:1;"
         offset="1"
         id="stop3" /></linearGradient><linearGradient
       inkscape:collect="always"
       xlink:href="#linearGradient2"
       id="linearGradient3"
       x1="84.372009"
       y1="117.27917"
       x2="105.06243"
       y2="179.72083"
       gradientUnits="userSpaceOnUse" /></defs><g
     inkscape:label="Layer 1"
     inkscape:groupmode="layer"
     id="layer1"
     transform="translate(-84.139509,-117.04667)"><path
       fill="#000000"
       d="m 105.06243,117.27917 c -11.403546,0 -20.690421,9.28687 -20.690421,20.69041 0,10.90084 18.653121,38.33813 19.446871,39.66105 l 1.24355,2.0902 1.24354,-2.0902 c 0.79375,-1.32292 19.44687,-28.76021 19.44687,-39.66105 0,-11.40354 -9.28687,-20.69041 -20.69041,-20.69041 z"
       id="path1"
       style="fill:url(#linearGradient3);fill-opacity:1;stroke:#000000;stroke-width:0.465;stroke-dasharray:none"
       sodipodi:nodetypes="sscccss" /><g
       id="g10"
       transform="matrix(1.1484445,0,0,1.1484445,-78.58938,-28.533622)"><path
         id="path8"
         style="fill:#ffffff;stroke:none;stroke-width:0.1;stroke-dasharray:none"
         d="m 165.90107,133.39914 c -0.042,0 -0.5052,0.24571 -1.02939,0.54622 -0.5242,0.30051 -1.4493,0.82413 -2.05569,1.16375 -1.53163,0.85783 -6.55667,3.70609 -8.12302,4.60437 -0.34651,0.19872 -0.83253,0.47627 -1.08003,0.6165 -1.6899,0.9575 -4.19136,2.38004 -5.15266,2.93006 -0.40839,0.23363 -1.08167,0.61624 -1.49655,0.85059 l -0.75447,0.42633 0.0119,0.65061 0.0119,0.6506 0.36018,0.0553 c 0.19801,0.0305 0.42552,0.0683 0.50592,0.0832 l 0.14624,0.0269 v 0.42478 c 0,0.40378 0.005,0.42558 0.10129,0.44648 0.0557,0.0121 1.08368,0.18495 2.2841,0.38396 1.20037,0.19902 2.23305,0.37219 2.29495,0.38499 l 0.11265,0.0233 -0.0119,4.04317 -0.0119,4.04316 -0.16847,0.0279 c -0.0926,0.0153 -0.25349,0.0281 -0.3576,0.0284 l -0.18913,5.1e-4 -0.0134,0.30386 -5.2e-4,0.0103 0.23461,-0.0258 c 0.0598,-0.0121 0.10082,-0.0282 0.14625,-0.0382 0.14238,-0.0315 4.06819,-0.21601 6.10918,-0.28681 1.28461,-0.0446 6.67986,0.0363 6.74997,0.0393 0.10084,0.004 0.19607,0.001 0.31541,6e-4 v -0.31832 h -0.87799 -0.87746 v -4.92322 -4.92269 l 0.50643,-0.1788 c 0.27844,-0.0981 0.70385,-0.2438 0.94516,-0.3235 l 0.43873,-0.14469 v -0.66973 -0.66921 l -0.1912,-0.0486 c -0.40355,-0.10205 -0.40187,-0.10797 0.10232,-0.30386 0.50463,-0.19606 1.38424,-0.50707 3.7791,-1.33687 0.82914,-0.28729 1.71984,-0.5993 1.97972,-0.6935 l 0.47284,-0.17156 0.0222,-0.95499 0.0227,-0.95549 1.19217,-0.48731 1.1927,-0.48731 0.0227,-0.97823 c 0.0146,-0.63246 0.006,-0.98168 -0.0227,-0.99168 -0.15736,-0.0492 -5.80365,-2.16929 -6.59805,-2.47736 -0.53519,-0.20755 -1.00745,-0.37724 -1.04955,-0.37724 z m -7.99073,12.32122 v 4.88136 4.88135 l -0.41599,0.0279 c -0.22895,0.0155 -0.67455,0.0416 -0.99012,0.0579 l -0.57361,0.0295 v -3.96203 -3.96203 l 0.78703,-0.28216 0.78755,-0.28163 v -0.48318 -0.48266 l -0.21342,-0.0429 -0.21394,-0.0424 0.30902,-0.14263 c 0.16992,-0.0785 0.35751,-0.1547 0.41651,-0.1695 z"
         sodipodi:nodetypes="sssscccccccccsscccccccccccccsccccccccccccssccccccccssscccccscccccccsscc" /><path
         id="path9"
         style="display:inline;fill:#000000;stroke:none;stroke-width:0;stroke-dasharray:none"
         d="m 165.90107,133.39914 c -0.042,0 -0.5052,0.24571 -1.02939,0.54622 -0.5242,0.30051 -1.4493,0.82413 -2.05569,1.16375 -1.53163,0.85783 -6.55667,3.70609 -8.12302,4.60437 -0.34651,0.19872 -0.83253,0.47627 -1.08003,0.6165 -1.6899,0.9575 -4.19136,2.38004 -5.15266,2.93006 -0.40839,0.23363 -1.08167,0.61624 -1.49655,0.85059 l -0.75447,0.42633 0.0119,0.65061 0.0119,0.6506 0.36018,0.0553 c 0.19801,0.0305 0.42552,0.0683 0.50592,0.0832 l 0.14624,0.0269 v 0.42478 c 0,0.40378 0.005,0.42558 0.10129,0.44648 0.0557,0.0121 1.08368,0.18495 2.2841,0.38396 1.20037,0.19902 2.23305,0.37219 2.29495,0.38499 l 0.11265,0.0233 -0.0119,4.04317 -0.0119,4.04316 -0.16847,0.0279 c -0.0926,0.0153 -0.25349,0.0281 -0.3576,0.0284 l -0.18913,5.1e-4 -0.0134,0.30386 -5.2e-4,0.0103 0.23461,-0.0258 c 0.0598,-0.0121 0.10082,-0.0282 0.14625,-0.0382 0.14238,-0.0315 4.06819,-0.21601 6.10918,-0.28681 1.28461,-0.0446 6.67986,0.0363 6.74997,0.0393 0.10084,0.004 0.19607,0.001 0.31541,6e-4 v -0.31832 h -0.87799 -0.87746 v -4.92322 -4.92269 l 0.50643,-0.1788 c 0.27844,-0.0981 0.70385,-0.2438 0.94516,-0.3235 l 0.43873,-0.14469 v -0.66973 -0.66921 l -0.1912,-0.0486 c -0.40355,-0.10205 -0.40187,-0.10797 0.10232,-0.30386 0.50463,-0.19606 1.38424,-0.50707 3.7791,-1.33687 0.82914,-0.28729 1.71984,-0.5993 1.97972,-0.6935 l 0.47284,-0.17156 0.0222,-0.95499 0.0227,-0.95549 1.19217,-0.48731 1.1927,-0.48731 0.0227,-0.97823 c 0.0146,-0.63246 0.006,-0.98168 -0.0227,-0.99168 -0.15736,-0.0492 -5.80365,-2.16929 -6.59805,-2.47736 -0.53519,-0.20755 -1.00745,-0.37724 -1.04955,-0.37724 z m 0.15865,0.34003 c 0.0162,0.002 0.0378,0.0107 0.0667,0.0217 0.27097,0.10302 0.28939,0.12582 0.28939,0.36019 0,0.24573 -0.0224,0.25937 -0.2589,0.15658 -0.14025,-0.0607 -0.14625,-0.0747 -0.14625,-0.31213 0,-0.18618 3.7e-4,-0.23314 0.0491,-0.22634 z m -0.29818,0.0207 c 0.0156,0 0.022,0.11472 0.015,0.25528 l -0.0134,0.2558 -0.3824,0.22066 c -0.3926,0.22669 -1.42716,0.79581 -3.6003,1.98076 -0.68064,0.37113 -1.48014,0.81065 -1.77715,0.97668 -0.29701,0.16604 -0.66179,0.36839 -0.81029,0.44959 -0.1485,0.0812 -0.46251,0.25431 -0.69763,0.38498 -0.77337,0.42976 -7.20486,3.96004 -8.03257,4.40904 -0.82171,0.44571 -0.90037,0.48878 -1.62006,0.88935 -0.85464,0.47571 -1.7664,0.97162 -2.03502,1.10691 -0.32039,0.1613 -0.38552,0.17265 -0.36432,0.063 0.0134,-0.0694 0.46689,-0.35509 1.25109,-0.78806 0.13647,-0.0753 0.75427,-0.4248 1.37304,-0.7767 0.61877,-0.35192 1.59082,-0.90332 2.16008,-1.22525 0.56927,-0.32193 1.85531,-1.05111 2.85769,-1.62005 3.61672,-2.05274 6.25307,-3.54007 8.77518,-4.95112 0.73015,-0.4085 1.6752,-0.94272 2.10013,-1.18701 0.42493,-0.24429 0.78528,-0.4439 0.80098,-0.4439 z m 0.9462,0.22479 c 0.0121,0 0.15409,0.0528 0.31523,0.11731 l 0.293,0.1173 v 0.22014 c 0,0.1807 -0.0144,0.22008 -0.0791,0.21808 -0.079,-0.003 -0.39147,-0.12342 -0.49558,-0.19172 -0.0519,-0.034 -0.0831,-0.48111 -0.0336,-0.48111 z m 0.91932,0.36535 c 0.0146,-6.2e-4 0.0342,0.004 0.06,0.0103 0.0585,0.0147 0.20111,0.0685 0.31729,0.11989 0.21074,0.0932 0.21136,0.0945 0.21136,0.31678 0,0.25578 -0.005,0.25721 -0.36019,0.11523 l -0.24753,-0.0992 -0.0134,-0.23978 c -0.0101,-0.17414 -0.0111,-0.22136 0.0325,-0.22325 z m -1.65003,0.17467 c 0.006,1.2e-4 0.2036,0.0728 0.43874,0.16123 0.62685,0.23568 1.76287,0.64928 3.0148,1.09761 0.6064,0.21716 1.3862,0.49687 1.73271,0.62167 0.9359,0.33708 1.91837,0.67571 2.05879,0.70951 l 0.12402,0.03 v 0.44493 c 0,0.24482 -0.0171,0.44493 -0.0377,0.44493 -0.0428,0 -3.13517,-1.03608 -5.52008,-1.8495 l -1.62005,-0.55242 -1.10278,0.55398 c -0.60638,0.30479 -1.36546,0.69089 -1.68723,0.85782 -0.32175,0.16693 -1.19276,0.6125 -1.93529,0.99012 -0.74249,0.37762 -1.57258,0.8029 -1.84484,0.94517 -0.50147,0.26204 -1.81397,0.93095 -4.59042,2.33991 -0.84153,0.42701 -1.97525,1.00488 -2.51973,1.28364 -0.54452,0.27878 -2.10576,1.06587 -3.46904,1.74924 -1.36328,0.6834 -2.50222,1.24231 -2.53112,1.24231 -0.0598,0 -0.0665,-0.0435 -0.0181,-0.11834 0.0427,-0.0661 0.20122,-0.15209 1.60817,-0.87075 3.64746,-1.8631 4.47126,-2.28524 6.41252,-3.28662 0.7549,-0.3894 2.11192,-1.0875 3.01532,-1.55133 0.9034,-0.46383 1.85192,-0.95504 2.1084,-1.0914 1.18887,-0.63213 3.80083,-1.97079 5.01209,-2.56884 l 1.33791,-0.66042 5.1e-4,-0.46148 c 2e-4,-0.25366 0.006,-0.46107 0.0124,-0.46095 z m 2.5089,0.13643 0.28112,0.1049 0.28111,0.1049 0.014,0.23203 c 0.008,0.12759 -0.003,0.22993 -0.0227,0.22893 -0.0199,-0.002 -0.15276,-0.046 -0.29507,-0.0987 l -0.25838,-0.0956 v -0.23822 z m 0.85007,0.31316 0.28371,0.10593 0.2837,0.10542 0.0134,0.23203 c 0.007,0.12753 -0.002,0.23175 -0.0222,0.23099 -0.0199,-8.4e-4 -0.14757,-0.0468 -0.2837,-0.1018 l -0.24753,-0.0997 -0.0139,-0.23668 z m 0.8599,0.32142 0.2589,0.10542 c 0.25787,0.10469 0.25873,0.1054 0.27233,0.31161 0.0155,0.2339 0.01,0.23602 -0.31781,0.12713 l -0.21342,-0.0708 v -0.23668 z m 0.80977,0.31006 0.23668,0.0935 c 0.12994,0.0512 0.24311,0.1 0.25011,0.10697 0.007,0.008 0.007,0.10417 0,0.21497 l -0.0139,0.20154 -0.23616,-0.0899 -0.23668,-0.0904 v -0.21808 z m 0.81752,0.32091 c 0.0169,6.8e-4 0.0392,0.006 0.0687,0.0134 0.0667,0.0167 0.18857,0.0588 0.27027,0.093 0.13306,0.0556 0.14882,0.0811 0.14882,0.24184 0,0.0987 -0.0156,0.18919 -0.0341,0.19999 -0.0186,0.0113 -0.13981,-0.0196 -0.26975,-0.0682 l -0.23616,-0.0884 v -0.20412 c 0,-0.14948 0.001,-0.18961 0.0522,-0.18759 z m 0.74621,0.29301 c 0.0469,-0.0283 0.43063,0.1185 0.43563,0.1664 0.003,0.0498 -0.40466,0.21287 -0.44132,0.17621 -0.0395,-0.0391 -0.0346,-0.31831 0.006,-0.34261 z m 0.71106,0.38292 c 0.0197,0.008 0.0207,0.0397 0.0207,0.10439 v 5.1e-4 c 0,0.1103 -0.0307,0.12314 -0.19121,0.0811 -0.11104,-0.0291 -0.0981,-0.0806 0.0357,-0.1416 0.0767,-0.0349 0.1152,-0.0521 0.13487,-0.0444 z m -8.21138,0.79168 0.57206,0.18656 c 0.31466,0.10256 0.65808,0.21781 0.76326,0.25631 l 0.1912,0.0703 v 0.78342 c 0,0.45794 -0.0178,0.78393 -0.0424,0.78393 -0.0232,0 -0.3597,-0.0912 -0.74776,-0.20258 -0.38807,-0.11138 -0.74095,-0.20257 -0.78445,-0.20257 -0.0627,0 -1.71522,0.69432 -2.67787,1.125 -0.66511,0.29756 -3.6251,1.56735 -3.93775,1.6893 -0.40939,0.15966 -1.89558,0.81364 -3.21737,1.41542 -0.97748,0.44501 -2.13241,0.95461 -2.92539,1.29088 -0.71144,0.3017 -1.78088,0.77671 -2.92489,1.29966 -0.47027,0.21497 -1.06556,0.47967 -1.32292,0.58808 -0.25734,0.10832 -0.47569,0.19688 -0.48369,0.19688 -0.009,0 -0.016,-0.20158 -0.016,-0.44855 v -0.44907 l 0.32608,-0.15347 c 0.17943,-0.0842 0.80227,-0.38076 1.3839,-0.65888 0.58162,-0.2781 1.21947,-0.58191 1.41748,-0.67541 0.198,-0.0934 0.74223,-0.35438 1.20923,-0.57981 0.467,-0.22542 0.85441,-0.40979 0.86041,-0.40979 0.006,0 0.55585,-0.26562 1.22111,-0.59015 1.56445,-0.76316 2.47544,-1.19708 4.92579,-2.34869 0.60832,-0.28588 1.4867,-0.70368 1.95234,-0.92811 0.46563,-0.22444 0.85183,-0.40825 0.85783,-0.40825 0.006,0 0.33241,-0.15417 0.72502,-0.34261 0.39262,-0.18844 0.93645,-0.44856 1.20871,-0.57826 0.27226,-0.12969 0.71331,-0.34259 0.9803,-0.47284 z m 4.40852,1.49449 0.11885,0.0294 c 0.0653,0.0164 0.3736,0.11329 0.68523,0.21549 l 0.56689,0.18604 0.0119,0.81545 0.0124,0.81494 -0.57464,-0.15193 c -0.31613,-0.0837 -0.62647,-0.15263 -0.68937,-0.15296 -0.0629,-3.1e-4 -0.70076,0.22452 -1.41748,0.49919 -0.71673,0.27467 -1.35352,0.51484 -1.41542,0.53434 -0.0619,0.0195 -0.27484,0.10106 -0.47284,0.18086 -0.70655,0.28503 -1.20015,0.45121 -1.18235,0.39791 0.01,-0.0295 0.46205,-0.22472 1.0051,-0.43408 0.9699,-0.37393 2.18995,-0.84727 2.94504,-1.14205 l 0.38241,-0.14934 0.0124,-0.82166 z m -11.30836,3.32434 0.36949,0.0543 c 0.36528,0.0534 0.37348,0.0573 0.7369,0.36845 0.20211,0.17303 0.4586,0.39887 0.57,0.50178 0.11138,0.10292 0.4026,0.36662 0.64698,0.58601 0.29341,0.26349 0.40795,0.39024 0.33745,0.37414 -0.0588,-0.0135 -0.68823,-0.14052 -1.39888,-0.28267 l -1.29243,-0.25838 -0.9803,0.38964 c -0.53926,0.21445 -0.99591,0.38945 -1.01441,0.38912 -0.0613,-0.001 -0.0395,-1.15496 0.0227,-1.20406 0.0309,-0.0245 0.22835,-0.12009 0.43873,-0.21239 0.21038,-0.0923 0.64815,-0.28875 0.97307,-0.43667 z m 0.95757,2.35438 c 0.36998,0.0209 0.62303,0.17394 0.76222,0.46147 0.0906,0.18688 0.0915,0.25169 0.0915,5.3051 v 5.11649 h -0.46147 c -0.2537,2e-4 -0.65797,0.013 -0.89865,0.0289 -0.35793,0.0237 -0.44221,0.0171 -0.46251,-0.0357 -0.0134,-0.0355 -0.0194,-2.35208 -0.0124,-5.14801 0.0132,-5.41683 0.005,-5.21797 0.22944,-5.4591 0.19052,-0.20484 0.42196,-0.28783 0.7519,-0.26923 z m 2.77192,0.43563 c 0.16967,-0.007 0.15193,0.56617 0.15193,5.24464 v 5.19607 l -0.40618,0.0145 c -0.22333,0.007 -0.426,0.007 -0.4501,-5.2e-4 -0.0283,-0.01 -0.0439,-1.7576 -0.0439,-4.89427 0,-4.81219 0.001,-4.88214 0.0915,-5.07411 0.10284,-0.2188 0.25556,-0.3487 0.50695,-0.4315 0.0616,-0.0203 0.11071,-0.0531 0.14986,-0.0548 z m -9.86554,0.0641 c 0.237,0.0336 0.44995,0.2094 0.84181,0.55604 0.62617,0.5539 0.93892,0.84509 0.87282,0.81339 -0.0248,-0.0119 -0.49056,-0.0964 -1.03508,-0.18862 l -0.99012,-0.16795 -0.64751,0.27492 c -0.35623,0.15116 -0.66571,0.27492 -0.68781,0.27492 -0.0224,0 -0.0344,-0.21553 -0.0274,-0.47905 l 0.0129,-0.47904 0.67489,-0.30747 c 0.48766,-0.2221 0.74848,-0.3307 0.98547,-0.29714 z m 5.87715,0.65319 v 4.88136 4.88135 l -0.41599,0.0279 c -0.22895,0.0155 -0.67455,0.0416 -0.99012,0.0579 l -0.57361,0.0295 v -3.96203 -3.96203 l 0.78703,-0.28216 0.78755,-0.28163 v -0.48318 -0.48266 l -0.21342,-0.0429 -0.21394,-0.0424 0.30902,-0.14263 c 0.16992,-0.0785 0.35751,-0.1547 0.41651,-0.1695 z m -4.94232,1.2423 c 0.21163,10e-4 0.40286,0.11176 0.51986,0.31988 l 0.10077,0.17983 0.001,4.10363 c 5e-4,2.25704 -0.0146,4.11349 -0.0331,4.12429 -0.0186,0.0112 -0.31237,0.0352 -0.65319,0.0532 l -0.62011,0.0326 0.0124,-4.17908 c 0.0133,-4.57514 -0.001,-4.34176 0.2806,-4.516 0.13028,-0.0805 0.26473,-0.1191 0.39171,-0.11834 z m 2.15231,0.20102 v 4.23334 4.23333 l -0.16846,0.005 c -0.0928,0.003 -0.23483,0.0106 -0.31523,0.0176 l -0.14624,0.0119 v -4.03077 -4.03076 l 0.10128,-0.14779 c 0.0951,-0.13907 0.18431,-0.19402 0.42737,-0.26252 z"
         sodipodi:nodetypes="sssscccccccccsscccccccccccccsccccccccccccssccccccccssscscssscccssscccccscscssssccsccssccscccsscssccsscccscscscscsssccccsccccccccccccccccccccccccccccccccccsccsccssssccssssccsccscsscssscsscssccccsssccsssccccccccccsccssccccccsccccccsccccccscccccsscscccscscssccccscccscccccccccccccccccscccccccsscccccccccccscccccccccccc" /></g></g></svg>
