<?xml version="1.0" encoding="UTF-8" standalone="no"?>
<!-- Created with Inkscape (http://www.inkscape.org/) -->

<svg
   width="42.380833mm"
   height="63.919567mm"
   viewBox="0 0 42.380833 63.919567"
   version="1.1"
   id="svg1"
   xml:space="preserve"
   inkscape:version="1.3 (0e150ed6c4, 2023-07-21)"
   sodipodi:docname="bridge_marker_Cartodb_light.svg"
   xmlns:inkscape="http://www.inkscape.org/namespaces/inkscape"
   xmlns:sodipodi="http://sodipodi.sourceforge.net/DTD/sodipodi-0.dtd"
   xmlns:xlink="http://www.w3.org/1999/xlink"
   xmlns="http://www.w3.org/2000/svg"
   xmlns:svg="http://www.w3.org/2000/svg"><sodipodi:namedview
     id="namedview1"
     pagecolor="#505050"
     bordercolor="#ffffff"
     borderopacity="1"
     inkscape:showpageshadow="0"
     inkscape:pageopacity="0"
     inkscape:pagecheckerboard="1"
     inkscape:deskcolor="#505050"
     inkscape:document-units="mm"
     inkscape:zoom="2.9255612"
     inkscape:cx="51.614029"
     inkscape:cy="84.770061"
     inkscape:window-width="1350"
     inkscape:window-height="1040"
     inkscape:window-x="1915"
     inkscape:window-y="56"
     inkscape:window-maximized="0"
     inkscape:current-layer="layer1" /><defs
     id="defs1"><rect
       x="212.35648"
       y="47.190327"
       width="103.81872"
       height="72.595367"
       id="rect3" /><linearGradient
       id="linearGradient2"
       inkscape:collect="always"><stop
         style="stop-color:#757575;stop-opacity:1;"
         offset="0"
         id="stop2" /><stop
         style="stop-color:#ffffff;stop-opacity:1;"
         offset="1"
         id="stop3" /></linearGradient><linearGradient
       inkscape:collect="always"
       xlink:href="#linearGradient2"
       id="linearGradient3"
       x1="84.372009"
       y1="117.27917"
       x2="105.06243"
       y2="179.72083"
       gradientUnits="userSpaceOnUse"
       gradientTransform="translate(-5.9725507,-293.13182)" /></defs><g
     inkscape:label="Layer 1"
     inkscape:groupmode="layer"
     id="layer1"
     transform="translate(-77.899458,176.35265)"><path
       fill="#000000"
       d="m 99.089879,-175.85265 c -11.403546,0 -20.690421,9.28687 -20.690421,20.69041 0,10.90084 18.653121,38.33813 19.446871,39.66105 l 1.24355,2.0902 1.243541,-2.0902 c 0.79375,-1.32292 19.44687,-28.76021 19.44687,-39.66105 0,-11.40354 -9.28687,-20.69041 -20.690411,-20.69041 z"
       id="path1"
       style="fill:url(#linearGradient3);fill-opacity:1;stroke:#0d0d0d;stroke-width:1;stroke-linecap:butt;stroke-linejoin:miter;stroke-dasharray:none;stroke-dashoffset:0;stroke-opacity:1"
       sodipodi:nodetypes="sscccss" /><path
       id="path8"
       style="fill:#bfbfbf;fill-opacity:1;stroke:none;stroke-width:0.114844;stroke-dasharray:none"
       sodipodi:type="inkscape:offset"
       inkscape:radius="-0.041317828"
       inkscape:original="M 111.9375 124.66797 C 111.88812 124.66869 111.35709 124.95025 110.75586 125.29492 C 110.15385 125.64004 109.09288 126.24083 108.39648 126.63086 C 106.63749 127.61603 100.86528 130.88829 99.066406 131.91992 C 98.668458 132.14813 98.110412 132.46591 97.826172 132.62695 C 95.885416 133.72659 93.012203 135.36053 91.908203 135.99219 C 91.43919 136.2605 90.66592 136.69961 90.189453 136.96875 L 89.324219 137.45898 L 89.337891 138.20703 L 89.351562 138.95312 L 89.765625 139.01758 C 89.993029 139.05258 90.253368 139.09608 90.345703 139.11328 L 90.513672 139.14258 L 90.513672 139.63086 C 90.513672 140.09458 90.520233 140.12053 90.630859 140.14453 C 90.694829 140.15843 91.87529 140.35738 93.253906 140.58594 C 94.632464 140.8145 95.817583 141.01264 95.888672 141.02734 L 96.017578 141.05469 L 96.003906 145.69727 L 95.990234 150.33984 L 95.796875 150.37305 C 95.690529 150.39065 95.506283 150.404 95.386719 150.4043 L 95.169922 150.40625 L 95.154297 150.75391 L 95.154297 150.76562 L 95.423828 150.73633 C 95.492508 150.72243 95.539623 150.70486 95.591797 150.69336 C 95.755312 150.65716 100.26345 150.44459 102.60742 150.36328 C 104.08272 150.31208 110.27885 150.4048 110.35938 150.4082 C 110.47517 150.4132 110.58365 150.41047 110.7207 150.41016 L 110.7207 150.04297 L 109.71289 150.04297 L 108.70508 150.04297 L 108.70508 144.39062 L 108.70508 138.73633 L 109.28711 138.53125 C 109.60689 138.41859 110.09592 138.25169 110.37305 138.16016 L 110.87695 137.99414 L 110.87695 137.22461 L 110.87695 136.45508 L 110.65625 136.40039 C 110.1928 136.28319 110.19441 136.27574 110.77344 136.05078 C 111.35298 135.82561 112.36291 135.4686 115.11328 134.51562 C 116.0655 134.1857 117.09021 133.82693 117.38867 133.71875 L 117.93164 133.52148 L 117.95703 132.42578 L 117.98242 131.32812 L 119.35156 130.76758 L 120.7207 130.20898 L 120.74805 129.08594 C 120.76485 128.3596 120.7538 127.95876 120.7207 127.94727 C 120.53998 127.89077 114.05685 125.45536 113.14453 125.10156 C 112.53077 124.86354 111.98915 124.66853 111.93945 124.66797 L 111.9375 124.66797 z M 102.76172 138.81836 L 102.76172 144.42383 L 102.76172 150.0293 L 102.2832 150.0625 C 102.02026 150.0803 101.5089 150.11021 101.14648 150.12891 L 100.48828 150.16211 L 100.48828 145.61133 L 100.48828 141.0625 L 101.39258 140.73828 L 102.29688 140.41406 L 102.29688 139.85938 L 102.29688 139.30469 L 102.05078 139.25586 L 101.80664 139.20703 L 102.16016 139.04297 C 102.35531 138.95277 102.57091 138.8666 102.63867 138.84961 L 102.76172 138.81836 z "
       d="m 111.9375,124.70898 c -0.0247,0.0303 -0.22198,-0.0156 -0.10352,0.0469 -0.0653,0.0315 -0.15496,0.0762 -0.26171,0.13281 -0.21352,0.11326 -0.49465,0.26927 -0.79493,0.44141 -0.60223,0.34525 -1.66475,0.94581 -2.36132,1.33594 -1.75858,0.98494 -7.52964,4.25765 -9.328129,5.28906 -0.398049,0.22827 -0.957845,0.54593 -1.242188,0.70703 -1.940698,1.09961 -4.81218,2.73367 -5.916016,3.36523 -0.469137,0.26839 -1.244148,0.70738 -1.720703,0.97657 l -0.84375,0.47851 0.01367,0.72461 0.01367,0.71094 0.378906,0.0586 c 0.227805,0.0351 0.488281,0.0782 0.582032,0.0957 l 0.167968,0.0293 a 0.04132196,0.04132196 0 0 1 0.0332,0.041 v 0.48828 c 0,0.23166 0.0024,0.35465 0.01563,0.41211 0.0066,0.0287 0.0141,0.039 0.02148,0.0449 0.0074,0.006 0.02064,0.01 0.04687,0.0156 0.01021,0.002 0.101049,0.0188 0.242187,0.043 0.141139,0.0242 0.338476,0.0576 0.576172,0.0977 0.475392,0.08 1.113458,0.18651 1.802735,0.30078 0.689294,0.11428 1.331073,0.22083 1.808593,0.30078 0.23876,0.04 0.437381,0.0734 0.580078,0.0977 0.142698,0.0242 0.226007,0.0384 0.248047,0.043 l 0.128907,0.0273 a 0.04132196,0.04132196 0 0 1 0.0332,0.041 l -0.01367,4.64258 -0.01367,4.64257 a 0.04132196,0.04132196 0 0 1 -0.0332,0.041 l -0.19336,0.0332 a 0.04132196,0.04132196 0 0 1 -0.002,0 c -0.110609,0.0183 -0.293482,0.0309 -0.416015,0.0312 l -0.177735,0.002 -0.01172,0.27148 0.21875,-0.0234 c 0.06565,-0.0133 0.110309,-0.0307 0.166015,-0.043 0.01792,-0.004 0.04293,-0.006 0.08594,-0.01 0.043,-0.004 0.101939,-0.007 0.173828,-0.0117 0.143777,-0.009 0.34277,-0.0201 0.583984,-0.0332 0.48243,-0.0263 1.133213,-0.0598 1.853516,-0.0937 1.440606,-0.0678 3.153863,-0.14098 4.326173,-0.18164 0.74052,-0.0257 2.6587,-0.0153 4.40234,0.002 0.87182,0.009 1.69915,0.019 2.31446,0.0273 0.30765,0.004 0.56214,0.007 0.74218,0.01 0.09,0.001 0.16074,0.003 0.21094,0.004 0.0502,8.6e-4 0.0773,0.002 0.0859,0.002 0.10102,0.004 0.2021,0.003 0.31836,0.002 v -0.28516 h -0.9668 -1.00781 a 0.04132196,0.04132196 0 0 1 -0.041,-0.041 v -5.65235 -5.65429 a 0.04132196,0.04132196 0 0 1 0.0273,-0.0391 l 0.58203,-0.20508 c 0.32017,-0.1128 0.80835,-0.27942 1.08594,-0.3711 l 0.47656,-0.15625 v -0.74023 -0.73633 l -0.18946,-0.0469 c -0.11596,-0.0293 -0.20377,-0.0521 -0.26367,-0.0742 -0.0299,-0.0111 -0.053,-0.0213 -0.0723,-0.0371 -0.01,-0.008 -0.0177,-0.0175 -0.0234,-0.0312 -0.006,-0.0138 -0.007,-0.0311 -0.002,-0.0449 0.009,-0.0277 0.0273,-0.043 0.0508,-0.0586 0.0234,-0.0156 0.0536,-0.0313 0.0918,-0.0488 0.0764,-0.0351 0.18526,-0.0785 0.33008,-0.13476 0.5809,-0.2257 1.59137,-0.58216 4.3418,-1.53516 0.95213,-0.32989 1.9779,-0.68904 2.27539,-0.79687 l 0.51563,-0.1875 0.0254,-1.06641 0.0254,-1.09766 a 0.04132196,0.04132196 0 0 1 0.0254,-0.0391 l 1.36914,-0.56054 1.34375,-0.54688 0.0273,-1.0957 v -0.002 c 0.008,-0.36155 0.009,-0.6432 0.004,-0.83398 -0.002,-0.0956 -0.005,-0.16838 -0.01,-0.2168 -0.003,-0.0242 -0.007,-0.0427 -0.01,-0.0527 -0.0362,-0.0119 -0.1378,-0.0501 -0.32422,-0.11914 -0.19642,-0.0727 -0.46922,-0.17402 -0.79297,-0.29492 -0.6475,-0.24181 -1.50214,-0.56251 -2.38086,-0.89258 -1.75745,-0.66015 -3.60733,-1.35593 -4.06445,-1.5332 -0.30661,-0.11891 -0.59462,-0.22823 -0.8125,-0.30665 -0.10895,-0.0392 -0.20088,-0.0699 -0.26758,-0.0918 -0.0333,-0.0109 -0.0603,-0.0198 -0.0801,-0.0254 -0.0198,-0.006 -0.0362,-0.008 -0.0293,-0.008 z m -9.18555,14.06836 a 0.04132196,0.04132196 0 0 1 0.0508,0.041 v 5.60547 5.60547 a 0.04132196,0.04132196 0 0 1 -0.0391,0.041 l -0.47851,0.0332 c -0.26343,0.0178 -0.77404,0.0477 -1.13672,0.0664 l -0.65821,0.0332 a 0.04132196,0.04132196 0 0 1 -0.043,-0.041 v -4.55078 -4.54883 a 0.04132196,0.04132196 0 0 1 0.0273,-0.0391 l 0.9043,-0.32422 0.87695,-0.31445 v -0.5254 -0.52148 l -0.21289,-0.041 -0.24414,-0.0488 a 0.04132196,0.04132196 0 0 1 -0.01,-0.0781 l 0.35352,-0.16406 c 0.0983,-0.0454 0.2016,-0.0898 0.28906,-0.125 0.0875,-0.0352 0.15743,-0.0623 0.19727,-0.0723 z"
       transform="translate(-5.9725507,-293.13182)" /><path
       id="path9"
       style="display:inline;fill:#000000;stroke:none;stroke-width:0;stroke-dasharray:none"
       d="m 105.96624,-168.46393 c -0.0482,0 -0.58019,0.28218 -1.1822,0.6273 -0.60201,0.34512 -1.66444,0.94647 -2.36084,1.3365 -1.75899,0.98517 -7.529971,4.25624 -9.32884,5.28787 -0.397948,0.22821 -0.956115,0.54697 -1.240355,0.70801 -1.940756,1.09964 -4.813544,2.73335 -5.917544,3.36501 -0.469013,0.26831 -1.242238,0.70772 -1.718705,0.97686 l -0.866467,0.48961 0.01367,0.74719 0.01367,0.74718 0.413647,0.0635 c 0.227404,0.035 0.488686,0.0784 0.581021,0.0956 l 0.167949,0.0309 v 0.48784 c 0,0.46372 0.0057,0.48876 0.116326,0.51276 0.06397,0.0139 1.244546,0.2124 2.623162,0.44096 1.378558,0.22856 2.564534,0.42744 2.635623,0.44214 l 0.129372,0.0267 -0.01367,4.64336 -0.01367,4.64335 -0.193479,0.032 c -0.106346,0.0176 -0.291119,0.0323 -0.410683,0.0326 l -0.217206,5.9e-4 -0.01539,0.34896 -5.97e-4,0.0118 0.269437,-0.0296 c 0.06868,-0.0139 0.115786,-0.0324 0.16796,-0.0439 0.163515,-0.0362 4.672088,-0.24807 7.016058,-0.32938 1.4753,-0.0512 7.671451,0.0417 7.751961,0.0451 0.11581,0.005 0.22518,0.001 0.36223,6.9e-4 v -0.36557 h -1.00832 -1.00771 v -5.65405 -5.65343 l 0.5816,-0.20535 c 0.31978,-0.11266 0.80834,-0.27999 1.08547,-0.37152 l 0.50385,-0.16617 v -0.76914 -0.76855 l -0.21958,-0.0558 c -0.46345,-0.1172 -0.46152,-0.124 0.11751,-0.34896 0.57954,-0.22517 1.58972,-0.58235 4.34009,-1.53533 0.95222,-0.32993 1.97514,-0.68826 2.2736,-0.79644 l 0.54303,-0.19703 0.0255,-1.09675 0.0261,-1.09733 1.36914,-0.55965 1.36975,-0.55965 0.0261,-1.12344 c 0.0168,-0.72634 0.007,-1.1274 -0.0261,-1.13889 -0.18072,-0.0565 -6.66517,-2.49131 -7.57749,-2.84511 -0.61464,-0.23836 -1.157,-0.43324 -1.20535,-0.43324 z m 0.1822,0.3905 c 0.0186,0.002 0.0434,0.0123 0.0766,0.0249 0.3112,0.11832 0.33235,0.1445 0.33235,0.41366 0,0.28221 -0.0257,0.29787 -0.29733,0.17983 -0.16107,-0.0697 -0.16796,-0.0858 -0.16796,-0.35847 0,-0.21382 4.2e-4,-0.26775 0.0564,-0.25994 z m -0.34244,0.0238 c 0.0179,0 0.0253,0.13174 0.0172,0.29317 l -0.0154,0.29377 -0.43917,0.25342 c -0.45088,0.26034 -1.63901,0.91394 -4.13474,2.27479 -0.78168,0.42622 -1.699861,0.93099 -2.040961,1.12166 -0.3411,0.19069 -0.76003,0.42308 -0.93057,0.51633 -0.17055,0.0933 -0.53117,0.29206 -0.80119,0.44213 -0.88818,0.49356 -8.274386,4.54789 -9.224965,5.06354 -0.943688,0.51187 -1.034025,0.56134 -1.860549,1.02137 -0.981506,0.54632 -2.028612,1.11585 -2.337107,1.27122 -0.367951,0.18525 -0.442749,0.19828 -0.418402,0.0724 0.01539,-0.0797 0.536198,-0.4078 1.436808,-0.90504 0.156728,-0.0865 0.866237,-0.48786 1.57686,-0.892 0.710623,-0.40416 1.826968,-1.03741 2.480732,-1.40713 0.653775,-0.36972 2.130721,-1.20714 3.281898,-1.86053 4.153605,-2.35746 7.181305,-4.06558 10.077806,-5.68609 0.83854,-0.46914 1.92388,-1.08266 2.41189,-1.36322 0.488,-0.28055 0.90185,-0.50979 0.91988,-0.50979 z m 1.08666,0.25815 c 0.0139,0 0.17696,0.0606 0.36202,0.13473 l 0.3365,0.13471 v 0.25282 c 0,0.20752 -0.0165,0.25275 -0.0909,0.25045 -0.0907,-0.003 -0.44958,-0.14174 -0.56914,-0.22018 -0.0596,-0.039 -0.0954,-0.55253 -0.0386,-0.55253 z m 1.05579,0.41959 c 0.0168,-7.1e-4 0.0393,0.005 0.0689,0.0118 0.0672,0.0169 0.23097,0.0787 0.36439,0.13768 0.24202,0.10704 0.24274,0.10853 0.24274,0.36381 0,0.29375 -0.006,0.29539 -0.41366,0.13233 l -0.28428,-0.11392 -0.0154,-0.27538 c -0.0116,-0.19999 -0.0127,-0.25422 0.0373,-0.25639 z m -1.89497,0.2006 c 0.007,1.3e-4 0.23382,0.0836 0.50387,0.18516 0.7199,0.27067 2.02455,0.74566 3.46233,1.26054 0.69641,0.2494 1.59197,0.57063 1.98992,0.71396 1.07483,0.38712 2.20314,0.77601 2.3644,0.81483 l 0.14243,0.0344 v 0.51098 c 0,0.28116 -0.0196,0.51098 -0.0433,0.51098 -0.0492,0 -3.60057,-1.18988 -6.33951,-2.12405 l -1.86054,-0.63442 -1.26648,0.63621 c -0.69639,0.35004 -1.56815,0.79345 -1.93769,0.98516 -0.36951,0.19171 -1.36982,0.70342 -2.22257,1.1371 -0.852711,0.43367 -1.806021,0.92209 -2.118701,1.08547 -0.57591,0.30094 -2.08324,1.06915 -5.271839,2.68726 -0.966451,0.4904 -2.268465,1.15405 -2.893771,1.47419 -0.625351,0.32016 -2.418348,1.22409 -3.983999,2.00891 -1.565652,0.78484 -2.873661,1.42672 -2.906851,1.42672 -0.06868,0 -0.07637,-0.05 -0.02079,-0.13591 0.04904,-0.0759 0.23109,-0.17466 1.846894,-1.00001 4.188905,-2.13966 5.134994,-2.62447 7.364423,-3.7745 0.866961,-0.4472 2.425423,-1.24893 3.462933,-1.78161 1.0375,-0.53269 2.12683,-1.09681 2.42138,-1.25341 1.365351,-0.72597 4.365041,-2.26335 5.756111,-2.95017 l 1.53651,-0.75846 5.9e-4,-0.52998 c 2.3e-4,-0.29132 0.007,-0.52952 0.0142,-0.52938 z m 2.88133,0.15668 0.32285,0.12047 0.32284,0.12047 0.0161,0.26648 c 0.009,0.14653 -0.003,0.26406 -0.0261,0.26291 -0.0229,-0.002 -0.17544,-0.0528 -0.33887,-0.11335 l -0.29674,-0.10979 v -0.27359 z m 0.97626,0.35965 0.32582,0.12165 0.32582,0.12107 0.0154,0.26647 c 0.008,0.14646 -0.002,0.26616 -0.0255,0.26528 -0.0228,-9.6e-4 -0.16948,-0.0537 -0.32581,-0.11691 l -0.28428,-0.1145 -0.016,-0.27181 z m 0.98755,0.36913 0.29733,0.12107 c 0.29615,0.12023 0.29713,0.12104 0.31275,0.35786 0.0178,0.26863 0.0115,0.27106 -0.36498,0.14601 l -0.2451,-0.0813 v -0.27182 z m 0.92997,0.35609 0.27182,0.10738 c 0.14922,0.0588 0.27919,0.11484 0.28723,0.12284 0.008,0.009 0.008,0.11964 0,0.24689 l -0.016,0.23145 -0.27122,-0.10324 -0.27181,-0.10382 v -0.25045 z m 0.93888,0.36854 c 0.0194,7.8e-4 0.045,0.007 0.0789,0.0154 0.0766,0.0192 0.21656,0.0675 0.31039,0.10681 0.15281,0.0638 0.17091,0.0931 0.17091,0.27774 0,0.11335 -0.0179,0.21727 -0.0392,0.22967 -0.0214,0.013 -0.16057,-0.0225 -0.3098,-0.0783 l -0.27121,-0.10152 v -0.23442 c 0,-0.17167 0.001,-0.21776 0.0599,-0.21544 z m 0.85698,0.33651 c 0.0539,-0.0325 0.49455,0.13609 0.5003,0.1911 0.003,0.0572 -0.46473,0.24447 -0.50684,0.20237 -0.0454,-0.0449 -0.0397,-0.36556 0.007,-0.39347 z m 0.81661,0.43976 c 0.0226,0.009 0.0238,0.0456 0.0238,0.11989 v 5.8e-4 c 0,0.12668 -0.0353,0.14142 -0.21959,0.0931 -0.12752,-0.0334 -0.11266,-0.0926 0.041,-0.16262 0.0881,-0.0401 0.1323,-0.0598 0.15489,-0.051 z m -9.43031,0.9092 0.65698,0.21426 c 0.36137,0.11778 0.75576,0.25014 0.87656,0.29435 l 0.21958,0.0807 v 0.89971 c 0,0.52592 -0.0204,0.9003 -0.0487,0.9003 -0.0267,0 -0.4131,-0.10473 -0.85876,-0.23265 -0.44568,-0.12791 -0.85094,-0.23264 -0.9009,-0.23264 -0.072,0 -1.96984,0.79739 -3.07539,1.292 -0.76384,0.34173 -4.163221,1.80002 -4.522281,1.94007 -0.47017,0.18336 -2.17697,0.93442 -3.694975,1.62553 -1.122581,0.51107 -2.448954,1.09632 -3.359648,1.4825 -0.817049,0.34649 -2.045242,0.89201 -3.359074,1.49259 -0.540079,0.24688 -1.223736,0.55088 -1.5193,0.67538 -0.295541,0.1244 -0.546304,0.2261 -0.555491,0.2261 -0.01034,0 -0.01837,-0.2315 -0.01837,-0.51513 v -0.51573 l 0.374485,-0.17625 c 0.206065,-0.0967 0.921362,-0.43729 1.589332,-0.75669 0.667958,-0.31938 1.400493,-0.66829 1.627897,-0.77567 0.227392,-0.10727 0.85241,-0.40699 1.388734,-0.66588 0.536323,-0.25888 0.981242,-0.47062 0.988133,-0.47062 0.0069,0 0.638363,-0.30505 1.402377,-0.67776 1.796684,-0.87644 2.8429,-1.37478 5.65699,-2.69734 0.69862,-0.32831 1.70739,-0.80814 2.242161,-1.06588 0.53475,-0.25776 0.97827,-0.46885 0.98517,-0.46885 0.007,0 0.38175,-0.17706 0.83264,-0.39347 0.4509,-0.21641 1.07546,-0.51515 1.38814,-0.6641 0.31267,-0.14894 0.81919,-0.39345 1.12582,-0.54303 z m 5.06294,1.71634 0.13649,0.0338 c 0.075,0.0188 0.42906,0.13011 0.78695,0.24748 l 0.65104,0.21366 0.0137,0.9365 0.0142,0.93591 -0.65994,-0.17448 c -0.36306,-0.0961 -0.71947,-0.17529 -0.79171,-0.17567 -0.0722,-3.5e-4 -0.80478,0.25785 -1.62789,0.57329 -0.82313,0.31545 -1.55445,0.59127 -1.62554,0.61366 -0.0711,0.0224 -0.31563,0.11607 -0.54303,0.20771 -0.81143,0.32734 -1.3783,0.51819 -1.35786,0.45698 0.0115,-0.0339 0.53064,-0.25808 1.1543,-0.49852 1.11388,-0.42943 2.51504,-0.97304 3.38222,-1.31158 l 0.43917,-0.17151 0.0142,-0.94363 z m -12.987031,3.81782 0.42434,0.0624 c 0.41951,0.0613 0.42892,0.0658 0.84629,0.42315 0.23211,0.19871 0.52668,0.45808 0.65461,0.57626 0.12792,0.1182 0.46237,0.42104 0.74303,0.673 0.336961,0.30261 0.468501,0.44817 0.387541,0.42968 -0.0675,-0.0155 -0.790401,-0.16138 -1.606541,-0.32463 l -1.48428,-0.29673 -1.12582,0.44747 c -0.61931,0.24629 -1.14375,0.44727 -1.165,0.44689 -0.0704,-0.001 -0.0454,-1.32641 0.0261,-1.3828 0.0355,-0.0281 0.26225,-0.13792 0.50386,-0.24392 0.24161,-0.106 0.74436,-0.33161 1.11752,-0.50149 z m 1.09972,2.70388 c 0.4249,0.024 0.71552,0.19976 0.87537,0.52997 0.10405,0.21462 0.10508,0.28905 0.10508,6.09261 v 5.87601 h -0.52997 c -0.29136,2.3e-4 -0.75564,0.0149 -1.03205,0.0332 -0.41107,0.0272 -0.50786,0.0196 -0.53117,-0.041 -0.0154,-0.0408 -0.0223,-2.70124 -0.0142,-5.91221 0.0152,-6.22093 0.006,-5.99255 0.2635,-6.26947 0.2188,-0.23525 0.4846,-0.33056 0.86351,-0.3092 z m 3.183401,0.50029 c 0.19485,-0.008 0.17448,0.65022 0.17448,6.02318 v 5.9674 l -0.46648,0.0166 c -0.25648,0.008 -0.48923,0.008 -0.51691,-6e-4 -0.0325,-0.0115 -0.0504,-2.0185 -0.0504,-5.62079 0,-5.52654 0.001,-5.60687 0.10509,-5.82734 0.1181,-0.25128 0.29349,-0.40046 0.5822,-0.49555 0.0707,-0.0233 0.12714,-0.061 0.1721,-0.0629 z m -11.33003,0.0736 c 0.272181,0.0386 0.516742,0.24048 0.966772,0.63858 0.719121,0.63612 1.078297,0.97054 1.002385,0.93413 -0.02848,-0.0137 -0.563381,-0.11071 -1.188732,-0.21662 l -1.137098,-0.19288 -0.743629,0.31573 c -0.40911,0.1736 -0.764531,0.31573 -0.789911,0.31573 -0.02573,0 -0.03951,-0.24752 -0.03147,-0.55016 l 0.01481,-0.55015 0.775074,-0.35311 c 0.56005,-0.25507 0.859588,-0.37979 1.131757,-0.34125 z m 6.749579,0.75015 v 5.60597 5.60596 l -0.47774,0.032 c -0.26294,0.0178 -0.77468,0.0478 -1.1371,0.0665 l -0.65876,0.0339 v -4.55018 -4.55017 l 0.90386,-0.32404 0.90446,-0.32344 v -0.5549 -0.55431 l -0.2451,-0.0493 -0.2457,-0.0487 0.35489,-0.16381 c 0.19515,-0.0901 0.41058,-0.17766 0.47834,-0.19466 z m -5.675979,1.42671 c 0.243046,0.001 0.462663,0.12835 0.597031,0.36737 l 0.115728,0.20652 0.0011,4.71279 c 5.74e-4,2.59209 -0.01677,4.72412 -0.03801,4.73652 -0.02136,0.0129 -0.358739,0.0404 -0.750152,0.0611 l -0.712162,0.0374 0.01424,-4.79944 c 0.01527,-5.2543 -0.0011,-4.98627 0.322253,-5.18638 0.149619,-0.0924 0.304028,-0.13678 0.449857,-0.13591 z m 2.471809,0.23086 v 4.86176 4.86174 l -0.193467,0.006 c -0.106576,0.003 -0.269689,0.0122 -0.362024,0.0202 l -0.167949,0.0137 v -4.62911 -4.62911 l 0.116315,-0.16972 c 0.109217,-0.15972 0.211669,-0.22282 0.49081,-0.30149 z"
       sodipodi:nodetypes="sssscccccccccsscccccccccccccsccccccccccccssccccccccssscscssscccssscccccscscssssccsccssccscccsscssccsscccscscscscsssccccsccccccccccccccccccccccccccccccccccsccsccssssccssssccsccscsscssscsscssccccsssccsssccccccccccsccssccccccsccccccsccccccscccccsscscccscscssccccscccscccccccccccccccccscccccccsscccccccccccscccccccccccc" /></g></svg>
