<?xml version="1.0" encoding="UTF-8" standalone="no"?>
<!-- Created with Inkscape (http://www.inkscape.org/) -->

<svg
   width="41.845829mm"
   height="63.128887mm"
   viewBox="0 0 41.845829 63.128887"
   version="1.1"
   id="svg1"
   xml:space="preserve"
   inkscape:version="1.3 (0e150ed6c4, 2023-07-21)"
   sodipodi:docname="down_mark_3.svg"
   xmlns:inkscape="http://www.inkscape.org/namespaces/inkscape"
   xmlns:sodipodi="http://sodipodi.sourceforge.net/DTD/sodipodi-0.dtd"
   xmlns:xlink="http://www.w3.org/1999/xlink"
   xmlns="http://www.w3.org/2000/svg"
   xmlns:svg="http://www.w3.org/2000/svg"><sodipodi:namedview
     id="namedview1"
     pagecolor="#505050"
     bordercolor="#ffffff"
     borderopacity="1"
     inkscape:showpageshadow="0"
     inkscape:pageopacity="0"
     inkscape:pagecheckerboard="1"
     inkscape:deskcolor="#505050"
     inkscape:document-units="mm"
     inkscape:zoom="2.1190784"
     inkscape:cx="120.80723"
     inkscape:cy="99.807539"
     inkscape:window-width="1920"
     inkscape:window-height="1017"
     inkscape:window-x="-8"
     inkscape:window-y="-8"
     inkscape:window-maximized="1"
     inkscape:current-layer="layer1" /><defs
     id="defs1"><rect
       x="212.35648"
       y="47.190327"
       width="103.81872"
       height="72.595367"
       id="rect3" /><rect
       x="212.35648"
       y="47.190327"
       width="103.81872"
       height="72.595367"
       id="rect2" /><linearGradient
       inkscape:collect="always"
       xlink:href="#linearGradient2"
       id="linearGradient3"
       x1="84.372009"
       y1="117.27917"
       x2="105.06243"
       y2="179.72083"
       gradientUnits="userSpaceOnUse"
       gradientTransform="translate(-2.1949951e-6,-0.11110521)" /><linearGradient
       id="linearGradient2"
       inkscape:collect="always"><stop
         style="stop-color:#950200;stop-opacity:1;"
         offset="0"
         id="stop2" /><stop
         style="stop-color:#633b3e;stop-opacity:1;"
         offset="1"
         id="stop3" /></linearGradient></defs><g
     inkscape:label="Layer 1"
     inkscape:groupmode="layer"
     id="layer1"
     transform="translate(-84.13951,-116.93556)"><path
       fill="#000000"
       d="m 105.06243,117.16806 c -11.403548,0 -20.690423,9.28687 -20.690423,20.69041 0,10.90084 18.653123,38.33813 19.446873,39.66105 l 1.24355,2.0902 1.24354,-2.0902 c 0.79375,-1.32292 19.44687,-28.76021 19.44687,-39.66105 0,-11.40354 -9.28687,-20.6904 -20.69041,-20.69041 z"
       id="path1"
       style="fill:url(#linearGradient3);fill-opacity:1;stroke:#000000;stroke-width:0.465;stroke-dasharray:none"
       sodipodi:nodetypes="sscccss" /><path
       id="rect4"
       style="font-variation-settings:'wght' 800;fill:#ffffff;stroke:#000000;stroke-width:0.25"
       d="m 98.563767,127.78232 v 4.28605 h 7.731313 l -3.50159,3.78116 v 3.5016 h 2.32492 c 1.06443,0 1.82965,0.17745 2.2965,0.53226 0.46685,0.33614 0.70073,0.79363 0.70073,1.37253 0,0.65359 -0.28055,1.15776 -0.84077,1.51257 -0.56023,0.35481 -1.31622,0.53227 -2.2686,0.53227 -0.91503,0 -1.85823,-0.14002 -2.82928,-0.42013 -0.95238,-0.28012 -1.8207,-0.68171 -2.605013,-1.20458 l -2.01693,4.17339 c 1.0084,0.61624 2.18496,1.09272 3.529503,1.42885 1.36321,0.33613 2.72646,0.50436 4.08967,0.50436 1.97946,0 3.59453,-0.30824 4.8457,-0.92449 1.25117,-0.63492 2.1759,-1.44733 2.77347,-2.43706 0.61625,-0.98973 0.9245,-2.04473 0.9245,-3.16518 0,-1.71802 -0.63496,-3.11871 -1.9048,-4.20181 -0.79669,-0.70156 -1.83688,-1.17867 -3.11815,-1.43351 l 4.04213,-4.36459 v -3.47369 z" /></g></svg>
