<?xml version="1.0" encoding="UTF-8" standalone="no"?>
<!-- Created with Inkscape (http://www.inkscape.org/) -->

<svg
   width="41.380833mm"
   height="62.441662mm"
   viewBox="0 0 41.380833 62.441662"
   version="1.1"
   id="svg1"
   xml:space="preserve"
   inkscape:version="1.3 (0e150ed6c4, 2023-07-21)"
   sodipodi:docname="mark_5.svg"
   xmlns:inkscape="http://www.inkscape.org/namespaces/inkscape"
   xmlns:sodipodi="http://sodipodi.sourceforge.net/DTD/sodipodi-0.dtd"
   xmlns:xlink="http://www.w3.org/1999/xlink"
   xmlns="http://www.w3.org/2000/svg"
   xmlns:svg="http://www.w3.org/2000/svg"><sodipodi:namedview
     id="namedview1"
     pagecolor="#505050"
     bordercolor="#ffffff"
     borderopacity="1"
     inkscape:showpageshadow="0"
     inkscape:pageopacity="0"
     inkscape:pagecheckerboard="1"
     inkscape:deskcolor="#505050"
     inkscape:document-units="mm"
     inkscape:zoom="1.4984147"
     inkscape:cx="81.085697"
     inkscape:cy="67.738257"
     inkscape:window-width="1920"
     inkscape:window-height="1017"
     inkscape:window-x="-8"
     inkscape:window-y="-8"
     inkscape:window-maximized="1"
     inkscape:current-layer="layer1" /><defs
     id="defs1"><rect
       x="212.35647"
       y="47.190326"
       width="103.81872"
       height="72.595365"
       id="rect3" /><linearGradient
       id="linearGradient2"
       inkscape:collect="always"><stop
         style="stop-color:#474747;stop-opacity:1;"
         offset="0"
         id="stop2" /><stop
         style="stop-color:#000000;stop-opacity:1;"
         offset="1"
         id="stop3" /></linearGradient><linearGradient
       inkscape:collect="always"
       xlink:href="#linearGradient2"
       id="linearGradient3"
       x1="84.372009"
       y1="117.27917"
       x2="105.06243"
       y2="179.72083"
       gradientUnits="userSpaceOnUse" /></defs><g
     inkscape:label="Layer 1"
     inkscape:groupmode="layer"
     id="layer1"
     transform="translate(-84.372009,-117.27917)"><path
       fill="#000000"
       d="m 105.06243,117.27917 c -11.403546,0 -20.690421,9.28687 -20.690421,20.69041 0,10.90084 18.653121,38.33813 19.446871,39.66105 l 1.24355,2.0902 1.24354,-2.0902 c 0.79375,-1.32292 19.44687,-28.76021 19.44687,-39.66105 0,-11.40354 -9.28687,-20.69041 -20.69041,-20.69041 z m 0.55562,31.53833 c -6.111874,0 -11.112499,-4.97417 -11.112499,-11.1125 0,-6.11187 4.974166,-11.1125 11.112499,-11.1125 6.13833,0 11.1125,4.97417 11.1125,11.1125 0,6.13833 -4.97417,11.1125 -11.1125,11.1125 z"
       id="path1"
       style="stroke-width:0.264583;fill-opacity:1;fill:url(#linearGradient3)" /><circle
       style="fill:#f9f9f9;stroke-width:0.557119"
       id="path2"
       cx="105.61805"
       cy="137.78249"
       r="11.189981" /><path
       d="m 215.70542,58.386575 q -0.864,0 -1.74,-0.216 -0.876,-0.216 -1.512,-0.612 l 0.852,-1.788 q 0.516,0.336 1.116,0.516 0.612,0.18 1.212,0.18 0.6,0 0.972,-0.228 0.372,-0.24 0.372,-0.66 0,-0.252 -0.144,-0.444 -0.144,-0.204 -0.492,-0.3 -0.348,-0.108 -0.996,-0.108 h -2.28 l 0.42,-4.908 h 5.352 v 1.836 h -4.512 l 1.212,-1.044 -0.276,3.312 -1.212,-1.044 h 1.86 q 1.248,0 2.004,0.36 0.756,0.348 1.104,0.948 0.348,0.588 0.348,1.332 0,0.744 -0.396,1.404 -0.384,0.648 -1.188,1.056 -0.804,0.408 -2.076,0.408 z"
       id="text3"
       style="font-size:12px;font-family:Montserrat;-inkscape-font-specification:'Montserrat, @wght=800';font-variation-settings:'wght' 800;white-space:pre;stroke-width:0.755906"
       transform="matrix(1.1671335,0,0,1.1671335,-146.21601,74.637558)"
       aria-label="5" /></g></svg>
