<?xml version="1.0" encoding="UTF-8" standalone="no"?>
<!-- Created with Inkscape (http://www.inkscape.org/) -->

<svg
   width="41.380833mm"
   height="62.441662mm"
   viewBox="0 0 41.380833 62.441662"
   version="1.1"
   id="svg1"
   xml:space="preserve"
   inkscape:version="1.3 (0e150ed6c4, 2023-07-21)"
   sodipodi:docname="mark_1.svg"
   xmlns:inkscape="http://www.inkscape.org/namespaces/inkscape"
   xmlns:sodipodi="http://sodipodi.sourceforge.net/DTD/sodipodi-0.dtd"
   xmlns:xlink="http://www.w3.org/1999/xlink"
   xmlns="http://www.w3.org/2000/svg"
   xmlns:svg="http://www.w3.org/2000/svg"><sodipodi:namedview
     id="namedview1"
     pagecolor="#505050"
     bordercolor="#ffffff"
     borderopacity="1"
     inkscape:showpageshadow="0"
     inkscape:pageopacity="0"
     inkscape:pagecheckerboard="1"
     inkscape:deskcolor="#505050"
     inkscape:document-units="mm"
     inkscape:zoom="1.4984147"
     inkscape:cx="-78.416209"
     inkscape:cy="21.022218"
     inkscape:window-width="1920"
     inkscape:window-height="1017"
     inkscape:window-x="-8"
     inkscape:window-y="-8"
     inkscape:window-maximized="1"
     inkscape:current-layer="layer1" /><defs
     id="defs1"><rect
       x="212.35647"
       y="47.190326"
       width="103.81872"
       height="72.595365"
       id="rect3" /><linearGradient
       id="linearGradient2"
       inkscape:collect="always"><stop
         style="stop-color:#a3a3a3;stop-opacity:1;"
         offset="0"
         id="stop2" /><stop
         style="stop-color:#000000;stop-opacity:1;"
         offset="1"
         id="stop3" /></linearGradient><linearGradient
       inkscape:collect="always"
       xlink:href="#linearGradient2"
       id="linearGradient3"
       x1="84.372009"
       y1="117.27917"
       x2="105.06243"
       y2="179.72083"
       gradientUnits="userSpaceOnUse" /></defs><g
     inkscape:label="Layer 1"
     inkscape:groupmode="layer"
     id="layer1"
     transform="translate(-84.372009,-117.27917)"><path
       fill="#000000"
       d="m 105.06243,117.27917 c -11.403546,0 -20.690421,9.28687 -20.690421,20.69041 0,10.90084 18.653121,38.33813 19.446871,39.66105 l 1.24355,2.0902 1.24354,-2.0902 c 0.79375,-1.32292 19.44687,-28.76021 19.44687,-39.66105 0,-11.40354 -9.28687,-20.69041 -20.69041,-20.69041 z m 0.55562,31.53833 c -6.111874,0 -11.112499,-4.97417 -11.112499,-11.1125 0,-6.11187 4.974166,-11.1125 11.112499,-11.1125 6.13833,0 11.1125,4.97417 11.1125,11.1125 0,6.13833 -4.97417,11.1125 -11.1125,11.1125 z"
       id="path1"
       style="stroke-width:0.264583;fill-opacity:1;fill:url(#linearGradient3)" /><circle
       style="fill:#f9f9f9;stroke-width:0.557119"
       id="path2"
       cx="105.61805"
       cy="137.78249"
       r="11.189981" /><path
       style="font-weight:800;font-family:Montserrat;-inkscape-font-specification:'Montserrat Ultra-Bold';white-space:pre;stroke-width:0.899888"
       d="m 104.57671,142.78249 v -8.98572 l 1.21429,1.17143 h -3.07143 v -2.18571 h 4.68571 v 10 z"
       id="text3"
       aria-label="1" /></g></svg>
