<?xml version="1.0" encoding="UTF-8" standalone="no"?>
<!-- Created with Inkscape (http://www.inkscape.org/) -->

<svg
   width="42.380833mm"
   height="63.919567mm"
   viewBox="0 0 42.380833 63.919567"
   version="1.1"
   id="svg1"
   xml:space="preserve"
   inkscape:version="1.3 (0e150ed6c4, 2023-07-21)"
   sodipodi:docname="marker_Cartodb_start_end.svg"
   xmlns:inkscape="http://www.inkscape.org/namespaces/inkscape"
   xmlns:sodipodi="http://sodipodi.sourceforge.net/DTD/sodipodi-0.dtd"
   xmlns:xlink="http://www.w3.org/1999/xlink"
   xmlns="http://www.w3.org/2000/svg"
   xmlns:svg="http://www.w3.org/2000/svg"><sodipodi:namedview
     id="namedview1"
     pagecolor="#505050"
     bordercolor="#ffffff"
     borderopacity="1"
     inkscape:showpageshadow="0"
     inkscape:pageopacity="0"
     inkscape:pagecheckerboard="1"
     inkscape:deskcolor="#505050"
     inkscape:document-units="mm"
     inkscape:zoom="1.4627806"
     inkscape:cx="111.77343"
     inkscape:cy="99.468095"
     inkscape:window-width="1920"
     inkscape:window-height="1017"
     inkscape:window-x="-8"
     inkscape:window-y="-8"
     inkscape:window-maximized="1"
     inkscape:current-layer="layer1"
     showgrid="false" /><defs
     id="defs1"><rect
       x="212.35648"
       y="47.190327"
       width="103.81872"
       height="72.595367"
       id="rect3" /><linearGradient
       id="linearGradient2"
       inkscape:collect="always"><stop
         style="stop-color:#060606;stop-opacity:1;"
         offset="0"
         id="stop2" /><stop
         style="stop-color:#101010;stop-opacity:1;"
         offset="1"
         id="stop3" /></linearGradient><linearGradient
       inkscape:collect="always"
       xlink:href="#linearGradient2"
       id="linearGradient3"
       x1="84.372009"
       y1="117.27917"
       x2="105.06243"
       y2="179.72083"
       gradientUnits="userSpaceOnUse"
       gradientTransform="translate(-5.97255,-293.13182)" /></defs><g
     inkscape:label="Layer 1"
     inkscape:groupmode="layer"
     id="layer1"
     transform="translate(-77.899458,176.35265)"><path
       id="path3"
       style="fill:url(#linearGradient3);fill-opacity:1;stroke:#ffffff;stroke-width:1;stroke-linecap:butt;stroke-linejoin:miter;stroke-dasharray:none;stroke-dashoffset:0;stroke-opacity:1"
       d="M 99.089896 -175.85242 C 87.686361 -175.85242 78.399686 -166.56574 78.399686 -155.16221 C 78.399686 -144.26138 97.052812 -116.82399 97.846561 -115.50107 L 99.089896 -113.41076 L 100.33323 -115.50107 C 101.12698 -116.82399 119.78011 -144.26138 119.78011 -155.16221 C 119.78011 -166.56574 110.49342 -175.85242 99.089896 -175.85242 z M 99.089896 -166.84005 A 11.677563 11.677563 0 0 1 110.76722 -155.16221 A 11.677563 11.677563 0 0 1 99.089896 -143.48489 A 11.677563 11.677563 0 0 1 87.412056 -155.16221 A 11.677563 11.677563 0 0 1 99.089896 -166.84005 z " /></g></svg>
