<?xml version="1.0" encoding="UTF-8" standalone="no"?>
<!-- Created with Inkscape (http://www.inkscape.org/) -->

<svg
   width="41.380833mm"
   height="62.441662mm"
   viewBox="0 0 41.380833 62.441662"
   version="1.1"
   id="svg1"
   xml:space="preserve"
   inkscape:version="1.3 (0e150ed6c4, 2023-07-21)"
   sodipodi:docname="mark_2.svg"
   xmlns:inkscape="http://www.inkscape.org/namespaces/inkscape"
   xmlns:sodipodi="http://sodipodi.sourceforge.net/DTD/sodipodi-0.dtd"
   xmlns:xlink="http://www.w3.org/1999/xlink"
   xmlns="http://www.w3.org/2000/svg"
   xmlns:svg="http://www.w3.org/2000/svg"><sodipodi:namedview
     id="namedview1"
     pagecolor="#505050"
     bordercolor="#ffffff"
     borderopacity="1"
     inkscape:showpageshadow="0"
     inkscape:pageopacity="0"
     inkscape:pagecheckerboard="1"
     inkscape:deskcolor="#505050"
     inkscape:document-units="mm"
     inkscape:zoom="2.1190784"
     inkscape:cx="111.60512"
     inkscape:cy="116.32415"
     inkscape:window-width="1920"
     inkscape:window-height="1017"
     inkscape:window-x="-8"
     inkscape:window-y="-8"
     inkscape:window-maximized="1"
     inkscape:current-layer="layer1" /><defs
     id="defs1"><rect
       x="212.35647"
       y="47.190326"
       width="103.81872"
       height="72.595365"
       id="rect3" /><linearGradient
       id="linearGradient2"
       inkscape:collect="always"><stop
         style="stop-color:#8c8c8c;stop-opacity:1;"
         offset="0"
         id="stop2" /><stop
         style="stop-color:#000000;stop-opacity:1;"
         offset="1"
         id="stop3" /></linearGradient><linearGradient
       inkscape:collect="always"
       xlink:href="#linearGradient2"
       id="linearGradient3"
       x1="84.372009"
       y1="117.27917"
       x2="105.06243"
       y2="179.72083"
       gradientUnits="userSpaceOnUse" /></defs><g
     inkscape:label="Layer 1"
     inkscape:groupmode="layer"
     id="layer1"
     transform="translate(-84.372009,-117.27917)"><path
       fill="#000000"
       d="m 105.06243,117.27917 c -11.403546,0 -20.690421,9.28687 -20.690421,20.69041 0,10.90084 18.653121,38.33813 19.446871,39.66105 l 1.24355,2.0902 1.24354,-2.0902 c 0.79375,-1.32292 19.44687,-28.76021 19.44687,-39.66105 0,-11.40354 -9.28687,-20.69041 -20.69041,-20.69041 z"
       id="path1"
       style="fill:url(#linearGradient3);fill-opacity:1;stroke-width:0.264583"
       sodipodi:nodetypes="sscccss" /><path
       id="rect1"
       style="font-variation-settings:'wght' 800;fill:#ffffff;stroke:#000000;stroke-width:0.25;stroke-dasharray:none"
       d="m 105.62774,127.78258 c -1.92343,0 -3.57595,0.37338 -4.95784,1.12035 -1.381881,0.74696 -2.436891,1.73683 -3.165181,2.96932 l 4.117581,2.29702 c 0.39215,-0.63492 0.89632,-1.11139 1.51257,-1.42885 0.61625,-0.31746 1.27889,-0.47594 1.98851,-0.47594 0.84033,0 1.46605,0.17745 1.87689,0.53226 0.4295,0.35481 0.6444,0.84975 0.6444,1.48467 0,0.26144 -0.0467,0.5507 -0.14004,0.86816 -0.0747,0.29879 -0.24292,0.63473 -0.50436,1.00821 -0.24277,0.37348 -0.62538,0.80328 -1.14825,1.28881 l -7.339091,6.86263 v 3.47317 h 15.266251 v -4.39766 h -7.5675 l 3.70159,-3.41736 c 0.93371,-0.85901 1.63431,-1.63398 2.10116,-2.32493 0.48553,-0.70961 0.81224,-1.37226 0.9803,-1.98851 0.16807,-0.63492 0.25218,-1.26987 0.25218,-1.90479 0,-1.21382 -0.32671,-2.26934 -0.9803,-3.1657 -0.63492,-0.89636 -1.52221,-1.58721 -2.66133,-2.07274 -1.13912,-0.48553 -2.46493,-0.72812 -3.97754,-0.72812 z" /></g></svg>
