<?xml version="1.0" encoding="UTF-8" standalone="no"?>
<!-- Created with Inkscape (http://www.inkscape.org/) -->

<svg
   width="41.380833mm"
   height="62.441662mm"
   viewBox="0 0 41.380833 62.441662"
   version="1.1"
   id="svg1"
   xml:space="preserve"
   inkscape:version="1.3 (0e150ed6c4, 2023-07-21)"
   sodipodi:docname="mark_0.svg"
   xmlns:inkscape="http://www.inkscape.org/namespaces/inkscape"
   xmlns:sodipodi="http://sodipodi.sourceforge.net/DTD/sodipodi-0.dtd"
   xmlns:xlink="http://www.w3.org/1999/xlink"
   xmlns="http://www.w3.org/2000/svg"
   xmlns:svg="http://www.w3.org/2000/svg"><sodipodi:namedview
     id="namedview1"
     pagecolor="#505050"
     bordercolor="#ffffff"
     borderopacity="1"
     inkscape:showpageshadow="0"
     inkscape:pageopacity="0"
     inkscape:pagecheckerboard="1"
     inkscape:deskcolor="#505050"
     inkscape:document-units="mm"
     inkscape:zoom="2.1190784"
     inkscape:cx="-1.1797581"
     inkscape:cy="113.02083"
     inkscape:window-width="1920"
     inkscape:window-height="1017"
     inkscape:window-x="-8"
     inkscape:window-y="-8"
     inkscape:window-maximized="1"
     inkscape:current-layer="layer1"
     showgrid="false" /><defs
     id="defs1"><linearGradient
       id="linearGradient1"
       inkscape:collect="always"><stop
         style="stop-color:#000000;stop-opacity:1"
         offset="0"
         id="stop1" /><stop
         style="stop-color:#ffffff;stop-opacity:1;"
         offset="1"
         id="stop2" /></linearGradient><rect
       x="212.35647"
       y="47.190326"
       width="103.81872"
       height="72.595365"
       id="rect3" /><linearGradient
       inkscape:collect="always"
       xlink:href="#linearGradient1"
       id="linearGradient2"
       x1="84.372009"
       y1="117.27917"
       x2="105.06243"
       y2="179.72083"
       gradientUnits="userSpaceOnUse" /></defs><g
     inkscape:label="Layer 1"
     inkscape:groupmode="layer"
     id="layer1"
     transform="translate(-84.372009,-117.27917)"><path
       fill="#000000"
       d="m 105.06243,117.27917 c -11.403546,0 -20.690421,9.28687 -20.690421,20.69041 0,10.90084 18.653121,38.33813 19.446871,39.66105 l 1.24355,2.0902 1.24354,-2.0902 c 0.79375,-1.32292 19.44687,-28.76021 19.44687,-39.66105 0,-11.40354 -9.28687,-20.69041 -20.69041,-20.69041 z"
       id="path1"
       style="fill:url(#linearGradient2);fill-opacity:1;stroke-width:0.264583"
       sodipodi:nodetypes="sscccss" /><path
       id="rect2"
       style="fill:#000000;stroke:#ffffff;stroke-width:0.25;stroke-dasharray:none"
       d="m 105.07637,127.78258 c -1.64835,0 -3.11355,0.39378 -4.3956,1.18132 -1.263726,0.78754 -2.262046,1.92299 -2.994636,3.40651 -0.7326,1.48351 -1.09916,3.28753 -1.09916,5.41207 0,2.12454 0.36656,3.92858 1.09916,5.41208 0.73259,1.48352 1.73091,2.61896 2.994636,3.40651 1.28205,0.78755 2.74725,1.18132 4.3956,1.18132 1.63004,0 3.07657,-0.39377 4.34031,-1.18132 1.28205,-0.78755 2.28943,-1.92299 3.02203,-3.40651 0.7326,-1.4835 1.09916,-3.28754 1.09916,-5.41208 0,-2.12454 -0.36656,-3.92856 -1.09916,-5.41207 -0.7326,-1.48352 -1.73998,-2.61897 -3.02203,-3.40651 -1.26374,-0.78754 -2.71027,-1.18131 -4.34031,-1.18132 z m 0,4.45037 c 0.58608,0 1.09885,0.18302 1.53841,0.54932 0.45788,0.3663 0.81485,0.95269 1.07125,1.75855 0.25642,0.80586 0.38447,1.88635 0.38447,3.24166 0,1.337 -0.12805,2.41749 -0.38447,3.24167 -0.2564,0.80586 -0.61337,1.39225 -1.07125,1.75856 -0.43956,0.3663 -0.95233,0.54932 -1.53841,0.54932 -0.58608,0 -1.10844,-0.18302 -1.56631,-0.54932 -0.43956,-0.3663 -0.79653,-0.95269 -1.07125,-1.75856 -0.25642,-0.82418 -0.38448,-1.90467 -0.38448,-3.24167 0,-1.35531 0.12806,-2.4358 0.38448,-3.24166 0.27472,-0.80585 0.63169,-1.39224 1.07125,-1.75855 0.45787,-0.3663 0.98023,-0.54932 1.56631,-0.54932 z" /></g></svg>
