<?xml version="1.0" encoding="UTF-8" standalone="no"?>
<!-- Created with Inkscape (http://www.inkscape.org/) -->

<svg
   width="41.380833mm"
   height="62.441662mm"
   viewBox="0 0 41.380833 62.441662"
   version="1.1"
   id="svg1"
   xml:space="preserve"
   inkscape:version="1.3 (0e150ed6c4, 2023-07-21)"
   sodipodi:docname="mark_5.svg"
   xmlns:inkscape="http://www.inkscape.org/namespaces/inkscape"
   xmlns:sodipodi="http://sodipodi.sourceforge.net/DTD/sodipodi-0.dtd"
   xmlns:xlink="http://www.w3.org/1999/xlink"
   xmlns="http://www.w3.org/2000/svg"
   xmlns:svg="http://www.w3.org/2000/svg"><sodipodi:namedview
     id="namedview1"
     pagecolor="#505050"
     bordercolor="#ffffff"
     borderopacity="1"
     inkscape:showpageshadow="0"
     inkscape:pageopacity="0"
     inkscape:pagecheckerboard="1"
     inkscape:deskcolor="#505050"
     inkscape:document-units="mm"
     inkscape:zoom="4.2381568"
     inkscape:cx="64.296819"
     inkscape:cy="64.296819"
     inkscape:window-width="1920"
     inkscape:window-height="1017"
     inkscape:window-x="-8"
     inkscape:window-y="-8"
     inkscape:window-maximized="1"
     inkscape:current-layer="layer1" /><defs
     id="defs1"><rect
       x="212.35647"
       y="47.190326"
       width="103.81872"
       height="72.595365"
       id="rect3" /><linearGradient
       id="linearGradient2"
       inkscape:collect="always"><stop
         style="stop-color:#474747;stop-opacity:1;"
         offset="0"
         id="stop2" /><stop
         style="stop-color:#000000;stop-opacity:1;"
         offset="1"
         id="stop3" /></linearGradient><linearGradient
       inkscape:collect="always"
       xlink:href="#linearGradient2"
       id="linearGradient3"
       x1="84.372009"
       y1="117.27917"
       x2="105.06243"
       y2="179.72083"
       gradientUnits="userSpaceOnUse" /></defs><g
     inkscape:label="Layer 1"
     inkscape:groupmode="layer"
     id="layer1"
     transform="translate(-84.372009,-117.27917)"><path
       fill="#000000"
       d="m 105.06243,117.27917 c -11.403546,0 -20.690421,9.28687 -20.690421,20.69041 0,10.90084 18.653121,38.33813 19.446871,39.66105 l 1.24355,2.0902 1.24354,-2.0902 c 0.79375,-1.32292 19.44687,-28.76021 19.44687,-39.66105 0,-11.40354 -9.28687,-20.69041 -20.69041,-20.69041 z"
       id="path1"
       style="fill:url(#linearGradient3);fill-opacity:1;stroke-width:0.264583"
       sodipodi:nodetypes="sscccss" /><path
       id="rect4"
       style="font-variation-settings:'wght' 800;fill:#ffffff;stroke:#000000;stroke-width:0.25;stroke-dasharray:none"
       d="m 99.977426,127.78258 -0.9803,11.45667 h 5.322164 c 1.0084,0 1.78337,0.0841 2.32492,0.25218 0.54155,0.14939 0.92416,0.38276 1.14825,0.70022 0.22409,0.29878 0.33641,0.64396 0.33641,1.03611 0,0.6536 -0.28926,1.16751 -0.86816,1.54099 -0.5789,0.35481 -1.33541,0.53227 -2.26911,0.53227 -0.93371,0 -1.87691,-0.14003 -2.82929,-0.42013 -0.9337,-0.28012 -1.80202,-0.6817 -2.605014,-1.20458 l -1.98851,4.17339 c 0.98974,0.61624 2.16577,1.09272 3.528994,1.42885 1.3632,0.33614 2.71723,0.50385 4.06176,0.50385 1.97946,0 3.59505,-0.31747 4.84622,-0.9524 1.25117,-0.63492 2.17538,-1.45657 2.77296,-2.46497 0.61624,-1.02707 0.92449,-2.11952 0.92449,-3.27731 0,-1.1578 -0.2708,-2.19383 -0.81235,-3.10886 -0.54155,-0.9337 -1.40064,-1.67175 -2.57711,-2.2133 -1.17646,-0.56023 -2.73564,-0.84026 -4.67775,-0.84026 h -1.30948 l 0.23771,-2.85719 h 7.9065 v -4.28553 z" /></g></svg>
