<?xml version="1.0" encoding="UTF-8" standalone="no"?>
<!-- Created with Inkscape (http://www.inkscape.org/) -->

<svg
   width="41.845829mm"
   height="63.128899mm"
   viewBox="0 0 41.845829 63.128899"
   version="1.1"
   id="svg1"
   xml:space="preserve"
   inkscape:version="1.3 (0e150ed6c4, 2023-07-21)"
   sodipodi:docname="up_mark_6.svg"
   xmlns:inkscape="http://www.inkscape.org/namespaces/inkscape"
   xmlns:sodipodi="http://sodipodi.sourceforge.net/DTD/sodipodi-0.dtd"
   xmlns:xlink="http://www.w3.org/1999/xlink"
   xmlns="http://www.w3.org/2000/svg"
   xmlns:svg="http://www.w3.org/2000/svg"><sodipodi:namedview
     id="namedview1"
     pagecolor="#505050"
     bordercolor="#ffffff"
     borderopacity="1"
     inkscape:showpageshadow="0"
     inkscape:pageopacity="0"
     inkscape:pagecheckerboard="1"
     inkscape:deskcolor="#505050"
     inkscape:document-units="mm"
     inkscape:zoom="2.1190784"
     inkscape:cx="156.19998"
     inkscape:cy="79.043796"
     inkscape:window-width="1920"
     inkscape:window-height="1017"
     inkscape:window-x="-8"
     inkscape:window-y="-8"
     inkscape:window-maximized="1"
     inkscape:current-layer="layer1" /><defs
     id="defs1"><rect
       x="212.35648"
       y="47.190327"
       width="103.81872"
       height="72.595367"
       id="rect3" /><linearGradient
       inkscape:collect="always"
       xlink:href="#linearGradient2"
       id="linearGradient3"
       x1="84.372009"
       y1="117.27917"
       x2="105.06243"
       y2="179.72083"
       gradientUnits="userSpaceOnUse"
       gradientTransform="translate(1.8360596e-6,-0.11111619)" /><linearGradient
       id="linearGradient2"
       inkscape:collect="always"><stop
         style="stop-color:#002703;stop-opacity:1;"
         offset="0"
         id="stop2" /><stop
         style="stop-color:#3b633e;stop-opacity:1;"
         offset="1"
         id="stop3" /></linearGradient></defs><g
     inkscape:label="Layer 1"
     inkscape:groupmode="layer"
     id="layer1"
     transform="translate(-84.139511,-116.93555)"><path
       fill="#000000"
       d="m 105.06243,117.16805 c -11.40354,0 -20.690419,9.28687 -20.690419,20.69042 0,10.90083 18.653119,38.33813 19.446869,39.66104 l 1.24355,2.09021 1.24354,-2.09021 c 0.79375,-1.32292 19.44687,-28.76021 19.44687,-39.66104 0,-11.40354 -9.28687,-20.69042 -20.69041,-20.69042 z"
       id="path1"
       style="fill:url(#linearGradient3);fill-opacity:1;stroke:#000000;stroke-width:0.465;stroke-dasharray:none"
       sodipodi:nodetypes="sscccss" /><path
       id="rect2"
       style="font-variation-settings:'wght' 800;fill:#ffffff;stroke:#000000;stroke-width:0.25;stroke-dasharray:none"
       d="m 106.37363,127.78259 c -2.01465,0 -3.79093,0.41192 -5.32939,1.23609 -1.52014,0.82418 -2.71963,2.02418 -3.59875,3.59927 -0.8608,1.55678 -1.29139,3.45204 -1.29139,5.68646 0,2.06961 0.36604,3.8096 1.09864,5.21984 0.75091,1.41026 1.78604,2.4726 3.10472,3.1869 1.33699,0.71428 2.90303,1.07124 4.69791,1.07124 1.41025,0 2.68284,-0.26519 3.81837,-0.79633 1.13553,-0.54944 2.04208,-1.30978 2.71973,-2.28049 0.67765,-0.989 1.01647,-2.15166 1.01647,-3.48867 0,-1.22711 -0.30201,-2.28946 -0.9064,-3.18689 -0.60439,-0.91575 -1.4101,-1.62112 -2.41742,-2.11563 -0.98902,-0.51282 -2.08817,-0.76895 -3.29696,-0.76895 -0.89743,0 -1.71221,0.11899 -2.44481,0.35709 -0.71429,0.23809 -1.33697,0.58599 -1.86811,1.04386 -0.005,0.005 -0.0102,0.0102 -0.0155,0.015 0.12048,-1.32647 0.54397,-2.36886 1.27899,-3.11919 0.89744,-0.89744 2.08785,-1.34617 3.57136,-1.34617 0.62271,0 1.22725,0.0731 1.81333,0.21962 0.60439,0.12821 1.18119,0.38433 1.73064,0.76895 l 1.97817,-3.90106 c -0.69597,-0.43956 -1.54756,-0.77838 -2.55488,-1.01647 -0.98901,-0.25641 -2.02413,-0.38447 -3.10472,-0.38447 z m -1.67535,11.26391 c 0.78754,0 1.4193,0.21983 1.89549,0.65939 0.49451,0.43956 0.74156,1.02543 0.74156,1.75803 0,0.49449 -0.10992,0.92509 -0.3297,1.2914 -0.21978,0.36629 -0.53086,0.65016 -0.93379,0.85162 -0.38461,0.20147 -0.83335,0.30179 -1.34617,0.30179 -0.54945,0 -1.02593,-0.10032 -1.42885,-0.30179 -0.40294,-0.21978 -0.71402,-0.50364 -0.9338,-0.85162 -0.21978,-0.3663 -0.32969,-0.78782 -0.32969,-1.26402 0,-0.4945 0.10991,-0.92457 0.32969,-1.29087 0.2381,-0.3663 0.54918,-0.65068 0.9338,-0.85214 0.40292,-0.20147 0.87032,-0.30179 1.40146,-0.30179 z" /></g></svg>
